<?xml version="1.0" encoding="utf-8"?>
<!-- Generator: Adobe Illustrator 27.5.0, SVG Export Plug-In . SVG Version: 6.00 Build 0)  -->
<svg version="1.1" xmlns="http://www.w3.org/2000/svg" xmlns:xlink="http://www.w3.org/1999/xlink" x="0px" y="0px"
	 viewBox="0 0 500 500" style="enable-background:new 0 0 500 500;" xml:space="preserve">
<g id="BACKGROUND">
	<rect style="fill:#FFFFFF;" width="500" height="500"/>
</g>
<g id="OBJECTS">
	<g>
		<g>
			<g>
				<g>
					<path style="fill:#E8E1FF;" d="M39.177,319.292c6.708-19.67,24.963-33.085,45.681-39.383c5.389-1.638,11.175-2.383,16.02-5.178
						c11.59-6.686,15.12-21.532,15.449-34.537c1.838-72.751,74.419-82.589,88.354-81.301c55.271,5.109,47.832,48.041,80.126,72.004
						c20.867,15.484,53.587-9.086,76.672,2.97c19.591,10.231,19.525,39.196,37.436,51.952c12.854,9.155,22.785-3.476,44.668,16.028
						c28.16,25.098,35.747,94.304-3.263,133.919l-363.143,1.555C63.806,435.06,12.807,396.619,39.177,319.292z"/>
				</g>
				<g>
					<g>
						<path style="fill:#D2BFFF;" d="M352.918,403.565c11.171-18.801,24.079-36.57,38.505-53.007
							c2.165,6.969,5.851,13.461,10.726,18.891c2.106-6.576-6.671-16.399-3.655-22.61c1.263-2.602,45.949-27.547,80.225-33.445
							c-2.04,25.086-7.019,49.22-18.303,74.391c-4.43-2.583-12.072-1.88-16.502-4.462c3.066,6.953,8.873,9.961,11.032,14.072
							c-17.374,19.496-42.526,40.258-50.705,43.239c-17.101,6.233-35.642,2.014-52.299-3.559
							c-8.888-2.974-11.083-3.546-8.396-12.832C345.635,417.025,349.095,409.999,352.918,403.565z"/>
					</g>
					<g>
						<g>
							<path style="fill:#F4F0FF;" d="M364.866,439.311c25.201-41.032,57.806-77.191,96.055-106.449
								c1.009-0.771,0.013-2.509-1.01-1.727c-38.533,29.475-71.381,65.825-96.772,107.166
								C362.464,439.402,364.193,440.408,364.866,439.311L364.866,439.311z"/>
						</g>
					</g>
					<g>
						<g>
							<path style="fill:#F4F0FF;" d="M365.933,398.999c4.831,5.761,7.531,12.52,8.017,20.025c0.031,0.486,0.436,1.072,1,1
								c12.841-1.647,25.731-2.06,38.652-1.239c1.285,0.082,1.28-1.919,0-2c-11.739-0.746-23.113,0.133-34.807,0.766
								c-2.634,0.143-2.54,0.379-3.171-2.031c-0.625-2.386-0.94-4.741-1.808-7.076c-1.495-4.02-3.72-7.582-6.468-10.859
								C366.519,396.597,365.11,398.018,365.933,398.999L365.933,398.999z"/>
						</g>
					</g>
					<g>
						<g>
							<path style="fill:#F4F0FF;" d="M386.429,373.842c3.96,6.795,6.437,14.067,7.385,21.875c0.064,0.528,0.406,1.012,1,1
								c10.531-0.215,21.021,0.251,31.492,1.398c1.278,0.14,1.268-1.861,0-2c-5.229-0.573-10.466-1.01-15.722-1.243
								c-2.626-0.117-5.255-0.188-7.884-0.214c-1.613-0.016-5.189,0.678-6.503-0.305c-1.84-1.376-2.132-8.061-2.953-10.504
								c-1.296-3.857-3.042-7.504-5.089-11.017C387.508,371.721,385.779,372.726,386.429,373.842L386.429,373.842z"/>
						</g>
					</g>
					<g>
						<g>
							<path style="fill:#F4F0FF;" d="M412.779,349.719c2.613,5.907,4.239,12.005,4.917,18.427c0.066,0.627,0.587,1.161,1.266,0.964
								c11.744-3.411,23.654-6.083,35.729-8.017c1.267-0.203,0.729-2.131-0.532-1.929c-12.076,1.934-23.985,4.606-35.729,8.017
								c0.422,0.321,0.844,0.643,1.266,0.964c-0.717-6.788-2.431-13.197-5.19-19.436
								C413.986,347.535,412.262,348.551,412.779,349.719L412.779,349.719z"/>
						</g>
					</g>
				</g>
				<g>
					<g>
						<path style="fill:#B7A5EF;" d="M317.632,273.004c1.263-13.845,3.204-27.977,9.672-40.283
							c6.468-12.306,18.336-22.596,32.2-23.622c13.621-1.007,29.032,7.328,36.243,18.928s6.848,25.908,5.359,39.485
							c-1.579,14.399-6.585,28.169-11.552,41.776c-14.641,40.108-28.161,69.192-52.807,104.057
							c-25.366,35.883-54.493,30.954-40.315,12.683C324.628,377.998,312.753,326.48,317.632,273.004z"/>
					</g>
					<g>
						<g>
							<path style="fill:#F4F0FF;" d="M305.618,442.738c14.661-21.786,24.59-47.052,33.445-71.634
								c11.199-31.089,20.283-63.154,25.959-95.728c2.723-15.627,4.667-31.462,4.718-47.343c0.004-1.287-1.996-1.289-2,0
								c-0.098,30.243-6.439,60.482-14.12,89.607c-7.97,30.224-18,60.113-30.798,88.649c-5.474,12.206-11.45,24.322-18.932,35.439
								C303.17,442.799,304.902,443.802,305.618,442.738L305.618,442.738z"/>
						</g>
					</g>
					<g>
						<g>
							<path style="fill:#F4F0FF;" d="M339.754,233.934c7.37,13.227,14.237,26.894,24.627,38.078
								c0.303,0.327,0.836,0.37,1.212,0.156c10.432-5.91,21.918-9.599,31.775-16.62c1.04-0.74,0.042-2.476-1.009-1.727
								c-5.051,3.597-10.595,6.444-16.156,9.159c-4.327,2.112-9.18,5.253-13.827,6.523c-1.72,0.47-0.434,0.636-1.736-0.151
								c-1.082-0.654-2.525-2.913-3.309-3.893c-2.816-3.522-5.335-7.277-7.71-11.107c-4.327-6.978-8.144-14.258-12.139-21.427
								C340.855,231.801,339.127,232.808,339.754,233.934L339.754,233.934z"/>
						</g>
					</g>
					<g>
						<g>
							<path style="fill:#F4F0FF;" d="M325.54,275.291c10.769,8.346,19.42,19.385,28.922,29.075
								c0.663,0.676,1.706,2.195,2.702,2.454c2.374,0.618,7.42-3.369,9.432-4.494c9.202-5.141,17.679-11.254,25.18-18.671
								c0.917-0.906-0.498-2.32-1.414-1.414c-6.976,6.898-14.81,12.663-23.317,17.534c-2.054,1.176-7.954,5.401-9.673,4.677
								c-1.414-0.595-3.112-3.184-4.147-4.279c-8.424-8.916-16.541-18.756-26.271-26.296
								C325.949,273.098,324.523,274.503,325.54,275.291L325.54,275.291z"/>
						</g>
					</g>
				</g>
				<g>
					<g>
						<path style="fill:#B7A5EF;" d="M98.971,426.15c-13.58-5.241-42.253-17.493-34.026-26.232c3.756-2.44,8.43-3.427,12.851-2.714
							c2.401-2.962-2.203-6.471-5.797-7.742c-9.59-3.391-46.368-14.996-36.503-25.44c3.234-3.875,16.424-2.638,15.797-3.206
							c-10.804-9.798-16.854-15.818-25.309-28.817c-5.359-8.239-9.953-24.614-0.614-27.506c5.989-0.132,10.785,4.834,14.173,9.775
							c3.388,4.941,8.991,13.85,15.03,19.543c-0.275-4.43-2.532-27.895,10.173-22.54c7.941,3.347,11.516,26.757,18.246,35.367
							c0.899,1.151,2.355,2.4,3.632,1.69c0.79-0.439,1.044-1.424,1.428-2.243c2.306-4.909,10.268-3.824,13.506,0.527
							c3.238,4.351,3.343,10.172,4.024,15.553c0.681,5.38,2.633,11.376,7.607,13.537c0.712-3.111,1.5-6.372,3.654-8.726
							c2.154-2.354,6.147-3.35,8.548-1.248c1.157,1.013,1.733,2.519,2.248,3.968c8.406,23.646,25.532,53.512,35.291,75.707
							C161.017,443.926,109.59,430.249,98.971,426.15z"/>
					</g>
					<g>
						<g>
							<path style="fill:#F4F0FF;" d="M30.667,323.35c37.247,47.41,84.589,85.49,131.557,122.762
								c0.998,0.792,2.422-0.614,1.414-1.414c-46.968-37.272-94.309-75.351-131.557-122.762
								C31.287,320.924,29.881,322.348,30.667,323.35L30.667,323.35z"/>
						</g>
					</g>
					<g>
						<g>
							<path style="fill:#F4F0FF;" d="M45.799,370.639c10.47,2.438,21.366,3.668,32.122,3.698c0.596,0.002,1.204-0.649,0.964-1.266
								c-4.924-12.667-10.42-26.027-12.416-39.526c-0.188-1.269-2.115-0.729-1.929,0.532c1.996,13.499,7.492,26.858,12.416,39.526
								c0.321-0.422,0.643-0.844,0.964-1.266c-10.584-0.03-21.289-1.228-31.59-3.627C45.078,368.419,44.544,370.346,45.799,370.639
								L45.799,370.639z"/>
						</g>
					</g>
					<g>
						<g>
							<path style="fill:#F4F0FF;" d="M76.011,406.797c6.793,0.728,13.553,1.709,20.384,2.04c5.961,0.289,12.798,0.591,18.281-2.177
								c0.489-0.247,0.609-0.919,0.359-1.368c-8.212-14.767-12.216-31.657-18.944-47.117c-0.512-1.177-2.236-0.16-1.727,1.009
								c6.731,15.469,10.723,32.334,18.944,47.117c0.12-0.456,0.239-0.912,0.359-1.368c-5.826,2.941-13.563,2.182-19.859,1.75
								c-5.957-0.409-11.863-1.25-17.797-1.886C74.732,404.66,74.742,406.661,76.011,406.797L76.011,406.797z"/>
						</g>
					</g>
				</g>
				<g>
					<g>
						<path style="fill:#D2BFFF;" d="M186.182,399.957c-11.016-6.976-21.871-12.048-32.886-19.024
							c-14.669-9.289-106.121-61.641-99.177-138.802c1.23-13.664,8.938-29.969,22.231-33.36
							c39.33-10.034,39.252,39.691,41.323,50.427c4.742,24.58,17.586,47.01,33.448,66.377s34.75,35.994,53.441,52.647
							c4.079,3.634,8.515,8.146,7.978,13.582c-0.196,1.984-1.061,3.831-1.913,5.633
							C205.728,407.798,193.791,404.776,186.182,399.957z"/>
					</g>
					<g>
						<g>
							<path style="fill:#F4F0FF;" d="M77.829,221.486c-1.176,15.085,0.618,28.802,5.869,42.941
								c4.273,11.506,9.514,22.654,15.616,33.303c14.174,24.733,32.916,46.715,54.632,65.142
								c13.994,11.874,29.181,22.236,45.144,31.275c1.122,0.635,2.131-1.092,1.009-1.727
								c-49.435-27.992-91.12-70.102-112.465-123.324c-2.498-6.229-5.046-12.661-6.498-19.228
								c-2.049-9.264-2.041-18.966-1.307-28.382C79.929,220.203,77.929,220.209,77.829,221.486L77.829,221.486z"/>
						</g>
					</g>
					<g>
						<g>
							<path style="fill:#F4F0FF;" d="M59.85,240.674c6.918,6.877,14.011,13.206,22.373,18.29c0.568,0.345,1.282,0.007,1.469-0.598
								c2.973-9.592,7.668-19.089,14.164-26.791c0.825-0.978-0.583-2.4-1.414-1.414c-6.732,7.982-11.594,17.723-14.678,27.674
								c0.49-0.199,0.979-0.398,1.469-0.598c-8.21-4.992-15.182-11.231-21.968-17.977C60.35,238.352,58.936,239.765,59.85,240.674
								L59.85,240.674z"/>
						</g>
					</g>
					<g>
						<g>
							<path style="fill:#F4F0FF;" d="M64.749,275.832c6.204,3.015,12.324,6.202,18.51,9.252c2.907,1.433,5.815,2.88,8.785,4.179
								c1.119,0.49,2.696,1.503,3.968,1.352c0.432-0.051,0.854-0.274,0.964-0.734c2.489-10.346,5.137-20.786,8.887-30.754
								c0.454-1.206-1.479-1.727-1.928-0.532c-2.513,6.68-4.429,13.585-6.266,20.475c-0.71,2.663-1.398,5.332-2.063,8.007
								c-0.157,0.633-0.307,1.268-0.468,1.9c-0.039,0.154,1.064,0.128,0.139-0.538c-1.539-1.107-4.007-1.705-5.744-2.528
								c-2.805-1.329-5.586-2.709-8.363-4.094c-5.141-2.563-10.244-5.204-15.411-7.714C64.606,273.545,63.59,275.269,64.749,275.832
								L64.749,275.832z"/>
						</g>
					</g>
					<g>
						<g>
							<path style="fill:#F4F0FF;" d="M78.774,308.248c11.097,4.795,22.544,9.179,34.315,12.009c0.522,0.125,1.087-0.162,1.23-0.699
								c2.652-9.909,3.782-20.081,4.446-30.295c0.084-1.285-1.917-1.28-2,0c-0.653,10.037-1.769,20.027-4.375,29.763
								c0.41-0.233,0.82-0.466,1.23-0.699c-11.598-2.788-22.904-7.082-33.838-11.807C78.614,306.016,77.595,307.738,78.774,308.248
								L78.774,308.248z"/>
						</g>
					</g>
				</g>
			</g>
			<g>
				<g>
					<g>
						<path style="fill:#363C89;" d="M73.621,353.833c-1.875-10.518-2.338-22.208,3.752-30.987
							c5.061-7.296,13.867-11.228,22.639-12.611c6.693-1.055,87.363-7.607,90.316-4.67c2.735,2.719,11.202,7.725,14.593,21.818
							c4.07,16.913,16.397,89.055,12.923,104.162c-9.627,2.396-101.65,2.863-115.967,2.99
							C101.291,429.178,76.677,370.973,73.621,353.833z"/>
					</g>
					<g>
						<g>
							<g>
								<g>
									<path style="fill:#D8702A;" d="M230.279,282.664c22.335,5.084,31.116,51.849,34.515,63.211
										c3.715,12.419,9.032,24.359,15.777,35.429c3.394,5.57,7.234,12.518,3.926,18.139c-2.088,3.549-6.468,5.133-10.581,5.324
										c-8.19,0.38-16.093-3.739-21.938-9.487c-5.845-5.749-9.925-13.021-13.699-20.299
										c-11.174-21.549-17.73-37.856-22.832-61.587C215.166,312.094,213.051,278.743,230.279,282.664z"/>
								</g>
								<g>
									<path style="fill:#FFBB8E;" d="M278.86,409.645c2.855,2.91,15.028,4.395,16.03,3.699c-1.057-6.341-7.29-2.74-8.06-7.629
										c1.895-1.325,4.144-0.924,6.002-0.924c1.62-0.001,3.134,1.438,3.82,3.18c1.037,2.634,0.652,3.453,1.057,6.254
										c0.399,2.763,3.204,4.783,3.206,3.021c0.003-3.235,0.008-8.231,0.011-11.466c0.798,2.877,1.363,11.968,5.239,11.11
										c0.945-4.351-1.067-8.183-1.086-12.635c1.1,3.778,1.086,12.635,4.961,11.379c0.158-4.06-1.346-8.163-1.188-12.223
										c0.87,3.582,2.245,11.342,4.388,10.091c0.647-3.907-0.419-8.041-1.262-11.911c-0.513-2.353-0.386-4.632-2.096-6.328
										c-1.051-1.042-15.889-3.919-22.044-3.557c-3.883,0.228-8.82-0.367-11.265,1.576
										C267.058,400.838,275.662,406.385,278.86,409.645z"/>
								</g>
							</g>
							<g>
								<path style="fill:#ED7C2A;" d="M128.955,328.087c5.081,24.709,21.854,27.869,24.978,52.901
									c2.085,16.704-4.9,37.398-9.652,53.547c38.601,1.357,77.683,0.653,106.21-0.58c-1.044-23.391-10.387-54.458-8.222-77.772
									c1.241-13.368,4.194-25.774,2.3-39.064c-1.894-13.291-7.632-32.54-14.29-34.454c-12.942-3.72-23.817-7.07-38.727-8.691
									c-6.512-0.708-25.626-2.699-42.122-0.376c-10.362,1.46-19.14,3.399-22.859,4.908
									C101.966,288.487,124.559,306.711,128.955,328.087z"/>
							</g>
							<g>
								<path style="fill:#EAA27A;" d="M192.78,301.312c2.439-0.18,12.899-18.875,12.102-21.187
									c-2.807-6.427-8.002,0.059-9.68-4.705c-1.34-3.807,5.269-21.138,1.556-25.581c-2.217-2.653-24.362-10.863-28.292-3.372
									c-1.853,3.531-8.803,19.37-8.803,23.49C159.663,272.356,185.951,301.816,192.78,301.312z"/>
							</g>
							<g>
								<g>
									<path style="fill:#FFBB8E;" d="M212.627,393.283c1.42,1.667,3.971,7.359,5.557,12.169c0.525,1.593,1.278,6.66,1.278,6.66
										c-4.016,1.938-5.448-7.822-6.835-10.569c-0.407,3.018,0.176,14.268-0.882,14.172c-3.874-0.961-3.455-9.415-3.169-13.467
										c-0.351,2.691-1.097,5.126-1.889,7.722c-0.807,2.647-1.761,5.137-3.024,6.428c-2.485-0.411-0.82-8.191-0.371-11.664
										c-1.419,5.972-5.066,12.157-5.066,12.157c-2.508,0-2.286-3.611-1.483-5.66c0.806-2.059,2.792-4.565,1.617-6.44
										c0.246,1.801-3.412,4.395-5.162,4.883c-1.751,0.487-6.653-1.212-8.401-1.709c-8.348-2.376-27.682-1.529-25.099-10.826
										c1.769-6.369,9.901-11.637,15.763-10.745c5.15,0.783,12.337,6.89,18.144,6.89
										C203.996,393.283,208.466,391.693,212.627,393.283z"/>
								</g>
								<g>
									<path style="fill:#D8702A;" d="M185.5,388.453c-10.466-5.925-54.051-25.055-54.431-26.016
										c-1.456-3.683,19.272-38.443,20.576-48.698c1.304-10.256,1.107-19.235-6.23-26.518c-9.759-9.688-18.844-8.715-18.844-8.715
										c-6.776,2.374-8.567,4.608-12.033,7.968c-4.91,4.759-7.743,11.209-10.457,17.484c-8.012,18.521-16.061,37.154-20.798,56.77
										c-1.295,5.364-2.315,11.137-0.339,16.289c1.328,3.465,3.909,6.316,6.767,8.682c11.542,9.554,27.266,11.851,42.124,13.784
										c15.407,2.005,31.39,6.477,46.797,8.482C181.801,408.377,188.819,390.332,185.5,388.453z"/>
								</g>
							</g>
							<g>
								<path style="fill:#D8702A;" d="M149.363,274.723c-0.012,4.095,3.243,7.986,4.952,11.707
									c2.891,6.295,5.783,12.59,8.675,18.884c3.702-4.843,7.403-9.687,11.105-14.53c5.242,5.791,11.821,10.365,19.075,13.263
									c3.442-4.45,6.883-8.9,10.325-13.351c1.402,4.191,3.261,8.23,5.533,12.021c2.007-9.827,3.733-21.032-2.286-29.055
									c-2.854-3.805-7.29-6.383-12.009-6.979c-1.805,5.997,2.265,12.195,2.22,18.458c-0.036,5.089-2.767,9.719-5.413,14.066
									c-3.448-2.18-6.77-4.561-9.942-7.127c-1.585-1.282-3.184-2.677-3.999-4.546c-0.698-1.599-0.776-3.452-1.7-4.931
									c-0.952-1.522-2.634-2.395-4.005-3.554c-5.638-4.764-9.231-14.026-9.231-19.26
									C158.294,259.791,149.385,266.87,149.363,274.723z"/>
							</g>
							<g>
								<g>
									<path style="fill:#D8702A;" d="M193.161,308.764c5.548,26.024,10.728,52.475,9.174,79.215c-0.075,1.286,1.926,1.282,2,0
										c1.564-26.91-3.663-53.56-9.245-79.747C194.822,306.974,192.893,307.506,193.161,308.764L193.161,308.764z"/>
								</g>
							</g>
						</g>
						<g>
							<g>
								<path style="fill:#4B4DF6;" d="M203.664,232.288c-0.666,4.135-0.447,8.635,1.852,12.136
									c2.299,3.501,7.122,5.547,10.883,3.704c4.836-2.368,5.303-9.009,4.713-14.361c-0.372-3.378-0.957-6.896-3.003-9.61
									C211.281,215.103,204.763,225.456,203.664,232.288z"/>
							</g>
							<g>
								<path style="fill:#FFBB8E;" d="M171.256,250.249c4.174,8.522,12.299,15.315,21.69,16.673
									c3.721,0.538,7.742,0.171,10.844-1.954c2.075-1.422,3.586-3.515,4.929-5.642c5.987-9.481,9.458-20.535,9.968-31.736
									c0.402-8.84-1.649-18.79-8.99-23.731c-5.578-3.754-12.797-3.687-19.518-3.484c-3.461,0.105-7.054,0.242-10.136,1.822
									c-3.204,1.643-5.457,4.642-7.58,7.553C164.764,220.311,165.531,238.562,171.256,250.249z"/>
							</g>
							<g>
								<g>
									<path style="fill:#E28E60;" d="M192.037,253.859c2.878,2.703,7.007,3.561,10.688,2.063
										c1.176-0.479,0.662-2.414-0.532-1.929c-3.031,1.234-6.335,0.712-8.742-1.549
										C192.514,251.564,191.097,252.975,192.037,253.859L192.037,253.859z"/>
								</g>
							</g>
							<g>
								<path style="fill:#241F3F;" d="M187.595,214.329c0.567,1.095,0.586,2.384,0.923,3.569c0.727,2.551,3.081,4.557,5.715,4.869
									c2.634,0.312,5.392-1.089,6.694-3.4c0.457-0.811,0.768-1.746,1.48-2.346c1.599-1.351,4.104-0.204,5.491,1.364
									c1.386,1.569,2.273,4.025,4.318,4.476c5.894,1.298,7.246-2.823,8.162-6.629c0.89,2.676,7.082,1.686,8.967-0.412
									c1.885-2.099,1.586-5.529-0.037-7.835c-1.624-2.307-4.259-3.682-6.903-4.665c-0.97-0.361-1.985-0.698-2.749-1.395
									c-2.748-2.507-0.416-7.111-1.247-10.737c-0.93-4.053-6.348-6.022-9.997-4.026c-2.723,1.49-4.462,4.568-7.413,5.533
									c-0.087-0.68-9.576-4.367-9.686-1.828c0,0-4.051-2.818-10.427-1.213c-3.101,0.781-5.974,3.608-5.996,6.806
									c-2.893-0.609-3.47-0.554-6.304,0.287c-2.834,0.841-5.402,3.174-5.701,6.115c-0.107,1.055,0.073,2.138-0.173,3.17
									c-0.633,2.665-3.915,3.598-4.706,5.955c-1.152,3.431,0.357,6.563,0.837,10.194c0.786,5.943-0.444,11.126,7.17,10.657
									c5.047-0.311,9.063,2.17,10.767-1.968C177.589,228.904,182.296,204.107,187.595,214.329z"/>
							</g>
							<g>
								<path style="fill:#4B4DF6;" d="M155.787,229.442c-0.666,4.135-0.118,9.629,2.18,13.131
									c2.299,3.501,7.122,5.547,10.883,3.704c4.836-2.368,5.303-9.009,4.713-14.361c-0.372-3.378-0.956-6.896-3.002-9.609
									C163.733,213.252,156.886,222.61,155.787,229.442z"/>
							</g>
							<g>
								<g>
									<path style="fill:#4B4DF6;" d="M166.889,222.331c0.143-8.521,2.097-18.19,9.406-23.521
										c5.148-3.755,15.193-7.416,24.703-6.116c0,0-2.604-2.41-5.287-2.847c-7.777-1.266-15.694,0.974-22.003,5.616
										c-8.358,6.149-10.882,17.016-11.047,26.869C162.616,225.052,166.844,225.053,166.889,222.331L166.889,222.331z"/>
								</g>
							</g>
							<g>
								<g>
									<path style="fill:#4B4DF6;" d="M164.63,239.044c1.681,10.536,10.628,19.835,21.408,20.818c1.281,0.117,1.273-1.884,0-2
										c-9.936-0.905-17.949-9.758-19.479-19.349C166.357,237.245,164.429,237.783,164.63,239.044L164.63,239.044z"/>
								</g>
							</g>
							<g>
								<path style="fill:#4B4DF6;" d="M194.113,258.1c0,2.596-2.105,4.701-4.701,4.701c-2.597,0-4.701-2.105-4.701-4.701
									s2.105-4.701,4.701-4.701C192.008,253.399,194.113,255.504,194.113,258.1z"/>
							</g>
							<g>
								<path style="fill:#E28E60;" d="M203.933,242.642c0.245,1.927,1.17,3.777,2.605,5.21c0.433,0.432,0.946,0.912,0.888,1.494
									c-0.1,0.998-1.619,1.179-2.699,0.996c-2.196-0.372-4.326-1.066-6.283-2.048c-0.173-0.087-0.347-0.177-0.481-0.308
									c-0.224-0.217-0.316-0.521-0.365-0.816c-0.29-1.731,0.613-3.415,1.176-5.09c0.634-1.887,0.438-11.224,3.658-10.529
									C206.054,232.331,203.66,240.496,203.933,242.642z"/>
							</g>
							<g>
								<path style="fill:#737AFF;" d="M157.707,236.088c0.036,2.134,0.264,4.507,1.855,5.93c1.821,1.63,5.113,1.069,6.292-1.07
									c0.568-1.031,0.663-2.248,0.736-3.423c0.189-3.062,0.3-6.17-0.363-9.166c-0.554-2.5-2.065-5.207-4.604-5.531
									C157.586,222.314,157.666,233.705,157.707,236.088z"/>
							</g>
							<g>
								<path style="fill:#241F3F;" d="M195.276,233.898c0,1.674-0.828,3.03-1.85,3.03s-1.85-1.357-1.85-3.03
									c0-1.674,0.828-3.031,1.85-3.031S195.276,232.225,195.276,233.898z"/>
							</g>
							<g>
								<ellipse style="fill:#241F3F;" cx="210.898" cy="234.717" rx="1.85" ry="3.03"/>
							</g>
							<g>
								<g>
									<path style="fill:#241F3F;" d="M188.509,227.79c1.531-1.564,3.668-2.013,5.716-1.276c1.213,0.437,1.736-1.495,0.532-1.929
										c-2.689-0.968-5.671-0.243-7.661,1.791C186.194,227.297,187.607,228.712,188.509,227.79L188.509,227.79z"/>
								</g>
							</g>
							<g>
								<g>
									<path style="fill:#241F3F;" d="M209.815,227.286c1.536,0.15,2.929,0.719,4.186,1.605c1.054,0.743,2.055-0.99,1.009-1.727
										c-1.555-1.096-3.309-1.694-5.195-1.878C208.534,225.161,208.543,227.162,209.815,227.286L209.815,227.286z"/>
								</g>
							</g>
						</g>
					</g>
				</g>
				<g>
					<g>
						<g>
							<path style="fill:#B7A5EF;" d="M454.709,444.347H57.029c-4.787,0-8.667-3.88-8.667-8.667v-0.986
								c0-4.786,3.88-8.667,8.667-8.667h397.68c4.786,0,8.667,3.88,8.667,8.667v0.986
								C463.375,440.467,459.495,444.347,454.709,444.347z"/>
						</g>
						<g>
							<path style="fill:#D2BFFF;" d="M442.544,444.347H69.194v0.694c0,6.731,5.457,12.188,12.188,12.188h348.974
								c6.731,0,12.188-5.457,12.188-12.188V444.347z"/>
						</g>
					</g>
					<g>
						<g>
							<path style="fill:#4B4DF6;" d="M383.88,387.979H243.793c-5.451,0-9.699-4.726-9.121-10.146l8.611-80.652
								c0.498-4.662,4.432-8.199,9.121-8.199h140.087c5.451,0,9.699,4.726,9.121,10.146l-8.611,80.652
								C392.503,384.443,388.569,387.979,383.88,387.979z"/>
						</g>
						<g>
							<path style="fill:#363C89;" d="M389.165,387.979H249.078c-5.451,0-9.699-4.726-9.121-10.146l8.61-80.652
								c0.498-4.662,4.432-8.199,9.121-8.199h140.087c5.451,0,9.699,4.726,9.121,10.146l-8.611,80.652
								C397.788,384.443,393.854,387.979,389.165,387.979z"/>
						</g>
						<g>
							<path style="fill:#4B4DF6;" d="M325.58,346.839h-9.24c-3.48,0-6.302,2.821-6.302,6.302v67.25h21.843v-67.25
								C331.882,349.66,329.06,346.839,325.58,346.839z"/>
						</g>
						<g>
							<rect x="284.673" y="420.391" style="fill:#363C89;" width="70.461" height="5.637"/>
						</g>
						<g>
							<rect x="210.898" y="420.391" style="fill:#4B4DF6;" width="82.935" height="5.637"/>
						</g>
						<g>
							<path style="fill:#4B4DF6;" d="M177.181,413.345h-7.842c-5.326,0-9.643,4.317-9.643,9.643c0,1.679,1.361,3.04,3.04,3.04
								h21.049c1.679,0,3.04-1.361,3.04-3.04C186.824,417.662,182.507,413.345,177.181,413.345z"/>
						</g>
					</g>
				</g>
			</g>
		</g>
		<g>
			<g>
				<path style="fill:#D2BFFF;" d="M310.994,111.821c-0.828-5.513-4.256-10.311-5.538-15.736c-2.519-10.663,3.59-21.7,2.263-32.576
					c-1.826-14.973-18.961-25.248-33.661-21.861c-6.11,1.408-9.933,2.718-15.78,1.455c-17.205-3.714-29.845,4.429-33.282,13.764
					c-8.273,22.468,4.267,26.049,7.5,44.87c1.364,7.939-10.997,20.945,4.691,39.47c5.29,6.247,13.486,9.905,21.654,11.336
					c-1.749,3.939-4.208,8.464-7.019,10.686c0,0,11.192-3.108,18.029-9.743C289.462,153.776,316.285,147.049,310.994,111.821z"/>
			</g>
			<g>
				<g>
					<path style="fill:#4B4DF6;" d="M283.325,116.193l-5.282-6.562c-1.499-1.862-4.224-2.157-6.087-0.658l-1.591,1.281
						c-0.933,0.751-2.298,0.604-3.049-0.33l-6.552-8.14l-0.781-0.97l-6.552-8.14c-0.751-0.933-0.604-2.298,0.33-3.049l1.591-1.281
						c1.863-1.499,2.157-4.224,0.658-6.087l-5.282-6.562c-1.499-1.863-4.224-2.157-6.087-0.658l-1.735,1.397
						c-4.528,3.645-5.244,10.27-1.6,14.799l4.111,5.108l7.912,9.83l0.781,0.971l7.912,9.83l4.111,5.108
						c3.645,4.528,10.27,5.244,14.799,1.6l1.735-1.397C284.53,120.78,284.824,118.055,283.325,116.193z"/>
				</g>
				<g>
					<path style="fill:#FFFFFF;" d="M277.192,101.229c-0.058,0-0.117-0.005-0.176-0.016c-0.544-0.096-0.906-0.616-0.81-1.159
						c0.735-4.14,0.111-7.473-1.856-9.906c-3.358-4.154-9.607-4.419-9.669-4.421c-0.552-0.019-0.984-0.481-0.966-1.033
						c0.019-0.552,0.531-0.992,1.031-0.966c0.292,0.009,7.204,0.286,11.148,5.15c2.357,2.905,3.123,6.783,2.28,11.525
						C278.09,100.889,277.668,101.229,277.192,101.229z"/>
				</g>
				<g>
					<path style="fill:#FFFFFF;" d="M283.482,100.897c-0.031,0-0.063-0.001-0.095-0.004c-0.55-0.052-0.954-0.54-0.901-1.089
						c1.684-17.858-15.486-20.07-16.219-20.155c-0.548-0.064-0.941-0.56-0.878-1.108c0.065-0.548,0.568-0.938,1.107-0.879
						c0.199,0.023,19.851,2.503,17.98,22.33C284.428,100.509,283.992,100.897,283.482,100.897z"/>
				</g>
				<g>
					<path style="fill:#FFFFFF;" d="M289.71,99.827c-0.55,0-0.996-0.443-1-0.994c-0.134-20.416-19.347-24.878-20.164-25.058
						c-0.539-0.119-0.881-0.652-0.763-1.191c0.118-0.539,0.655-0.879,1.189-0.763c0.216,0.047,21.593,4.963,21.737,27
						c0.004,0.552-0.441,1.003-0.993,1.006C289.714,99.827,289.712,99.827,289.71,99.827z"/>
				</g>
			</g>
		</g>
		<g>
			<g>
				<path style="fill:#FFC278;" d="M466.259,115.061c-5.646-6.008-14.322-7.783-21.759-11.343
					c-10.875-5.206-19.262-14.39-26.979-23.653c-8.405-10.089-18.992-22.909-33.249-23.108
					c-14.892-0.208-29.941,8.978-39.352,19.923c-10.636,12.37-16.335,28.4-18.532,44.565c-1.624,11.953-1.344,24.598,3.937,35.443
					c1.342,2.757,3.068,5.364,5.09,7.714c-2.334,4.168-5.81,9.221-9.901,11.503c0,0,10.936-0.306,17.944-4.603
					c4.634,2.858,9.908,4.489,15.37,4.227c9.048-0.434,18.035-5.753,26.706-3.132c4.331,1.309,7.825,4.43,11.468,7.113
					c13.785,10.15,32.779,14.562,48.409,7.58c18.325-8.186,27.489-29.734,27.632-49.804
					C473.1,129.481,471.743,120.896,466.259,115.061z"/>
			</g>
			<g>
				<g>
					<rect x="357.183" y="106.264" style="fill:#FFFFFF;" width="75.386" height="54.783"/>
				</g>
				<g>
					<g>
						<path style="fill:#4B4DF6;" d="M363.465,112.047c-0.828,0-1.5-0.671-1.5-1.5v-7.277c0-0.829,0.672-1.5,1.5-1.5
							c0.828,0,1.5,0.671,1.5,1.5v7.277C364.965,111.376,364.293,112.047,363.465,112.047z"/>
					</g>
					<g>
						<path style="fill:#4B4DF6;" d="M372.439,112.047c-0.828,0-1.5-0.671-1.5-1.5v-7.277c0-0.829,0.672-1.5,1.5-1.5
							c0.828,0,1.5,0.671,1.5,1.5v7.277C373.939,111.376,373.268,112.047,372.439,112.047z"/>
					</g>
					<g>
						<path style="fill:#4B4DF6;" d="M381.414,112.047c-0.828,0-1.5-0.671-1.5-1.5v-7.277c0-0.829,0.672-1.5,1.5-1.5
							c0.828,0,1.5,0.671,1.5,1.5v7.277C382.914,111.376,382.242,112.047,381.414,112.047z"/>
					</g>
					<g>
						<path style="fill:#4B4DF6;" d="M390.389,112.047c-0.828,0-1.5-0.671-1.5-1.5v-7.277c0-0.829,0.672-1.5,1.5-1.5
							c0.828,0,1.5,0.671,1.5,1.5v7.277C391.889,111.376,391.217,112.047,390.389,112.047z"/>
					</g>
					<g>
						<path style="fill:#4B4DF6;" d="M399.363,112.047c-0.828,0-1.5-0.671-1.5-1.5v-7.277c0-0.829,0.672-1.5,1.5-1.5
							s1.5,0.671,1.5,1.5v7.277C400.863,111.376,400.191,112.047,399.363,112.047z"/>
					</g>
					<g>
						<path style="fill:#4B4DF6;" d="M408.337,112.047c-0.828,0-1.5-0.671-1.5-1.5v-7.277c0-0.829,0.672-1.5,1.5-1.5
							c0.828,0,1.5,0.671,1.5,1.5v7.277C409.837,111.376,409.165,112.047,408.337,112.047z"/>
					</g>
					<g>
						<path style="fill:#4B4DF6;" d="M417.311,112.047c-0.828,0-1.5-0.671-1.5-1.5v-7.277c0-0.829,0.672-1.5,1.5-1.5
							s1.5,0.671,1.5,1.5v7.277C418.811,111.376,418.14,112.047,417.311,112.047z"/>
					</g>
					<g>
						<path style="fill:#4B4DF6;" d="M426.286,112.047c-0.828,0-1.5-0.671-1.5-1.5v-7.277c0-0.829,0.672-1.5,1.5-1.5
							c0.828,0,1.5,0.671,1.5,1.5v7.277C427.786,111.376,427.114,112.047,426.286,112.047z"/>
					</g>
				</g>
				<g>
					<g>
						<rect x="378.658" y="118.785" style="fill:#D2BFFF;" width="7.658" height="7.658"/>
					</g>
					<g>
						<rect x="390.664" y="118.785" style="fill:#D2BFFF;" width="7.658" height="7.658"/>
					</g>
					<g>
						<rect x="402.67" y="118.785" style="fill:#D2BFFF;" width="7.658" height="7.658"/>
					</g>
					<g>
						<rect x="414.677" y="118.785" style="fill:#FFC278;" width="7.658" height="7.658"/>
					</g>
				</g>
				<g>
					<g>
						<rect x="366.652" y="129.826" style="fill:#FFC278;" width="7.658" height="7.658"/>
					</g>
					<g>
						<rect x="378.658" y="129.826" style="fill:#D2BFFF;" width="7.658" height="7.658"/>
					</g>
					<g>
						<rect x="390.664" y="129.826" style="fill:#D2BFFF;" width="7.658" height="7.658"/>
					</g>
					<g>
						<rect x="402.67" y="129.826" style="fill:#D2BFFF;" width="7.658" height="7.658"/>
					</g>
					<g>
						<rect x="414.677" y="129.826" style="fill:#FFC278;" width="7.658" height="7.658"/>
					</g>
				</g>
				<g>
					<g>
						<rect x="366.652" y="140.868" style="fill:#FFC278;" width="7.658" height="7.658"/>
					</g>
					<g>
						<rect x="378.658" y="140.868" style="fill:#D2BFFF;" width="7.658" height="7.658"/>
					</g>
					<g>
						<rect x="390.664" y="140.868" style="fill:#D2BFFF;" width="7.658" height="7.658"/>
					</g>
					<g>
						<rect x="402.67" y="140.868" style="fill:#D2BFFF;" width="7.658" height="7.658"/>
					</g>
				</g>
			</g>
		</g>
		<g>
			<g>
				<path style="fill:#FFB583;" d="M84.542,101.439c-20.083,14.622-44.673-0.103-57.881,28.247
					c-5.449,11.695-3.289,23.082,2.191,35.586c6.369,14.532,15.414,20.255,28.492,20.914c7.555,0.38,13.899-2.9,21.241-7.403
					c5.34,3.261,12.554,6.712,19.232,6.746c0,0-5.84-4.229-7.703-13.816c2.78-1.614,5.76-3.232,9.019-4.78
					c20.408-9.692,27.692-0.953,40.006-15.864C159.275,126.686,126.391,70.97,84.542,101.439z"/>
			</g>
			<g>
				<g>
					<path style="fill:#FFFFFF;" d="M106.421,115.117l7.835,27.844c0.341,1.214,0.081,2.441-0.591,3.405
						c-0.515,0.722-1.271,1.287-2.185,1.544l-50.352,14.168c-0.913,0.257-1.85,0.182-2.669-0.178
						c-1.073-0.459-1.938-1.384-2.28-2.597l-7.835-27.844c-0.341-1.213-0.085-2.454,0.591-3.405
						c0.515-0.722,1.275-1.274,2.188-1.531l50.352-14.168c0.913-0.257,1.853-0.169,2.666,0.165
						C105.217,112.991,106.08,113.903,106.421,115.117z"/>
				</g>
				<g>
					<path style="fill:#A4ADFF;" d="M89.788,134.821l23.877,11.545c-0.515,0.722-1.271,1.287-2.185,1.544l-2.518,0.709
						l-21.398-10.341l-3.174,4.934c-0.287,0.433-0.696,0.731-1.165,0.863c-0.457,0.129-0.974,0.091-1.431-0.132l-5.294-2.552
						l-12.853,19.979l-5.187,0.53l14.353-22.302l-23.877-11.545c0.515-0.722,1.275-1.274,2.188-1.531l2.518-0.708l28.294,13.681
						l17.021-26.432l2.518-0.709c0.913-0.257,1.853-0.169,2.666,0.165L89.788,134.821z"/>
				</g>
			</g>
		</g>
		<g>
			<g>
				<path style="fill:#A4ADFF;" d="M208.48,95.969c-2.106-3.508-5.628-6.407-6.163-10.463c-0.259-1.963-0.247-4.073,0.533-5.893
					c4.855-11.319,1.39-24.108-8.735-31.686c-8.05-6.024-18.883-7.443-27.767-3.36c-13.451,6.182-21.162,18.091-14.486,37.189
					c1.868,5.344,4.36,10.672,4.375,16.334c0.011,4.369-3.088,15.091,6.164,24.889c5.575,5.904,12.612,8.346,19.935,7.918
					c0.896,2.696,1.79,7.387,0.792,14.282c0,0,8.917-7.466,9.616-16.68C214.505,121,211.725,101.373,208.48,95.969z"/>
			</g>
			<g>
				<g>
					<path style="fill:#FFFFFF;" d="M176.334,103.229L176.334,103.229c-1.972,0-3.571,1.599-3.571,3.57
						c0,1.972,1.599,3.571,3.571,3.571h0c1.972,0,3.57-1.599,3.57-3.571C179.905,104.827,178.306,103.229,176.334,103.229z"/>
				</g>
				<g>
					<path style="fill:#FFFFFF;" d="M185.953,70.817c-2.423-2.426-5.684-3.638-9.784-3.638c-3.897,0-7.044,1.198-9.441,3.595
						c-1.14,1.14-2.031,2.398-2.671,3.772c-1.087,2.334,0.302,5.183,2.615,5.508l0,0c1.453,0.204,2.863-0.68,3.466-2.19
						c0.458-1.147,1.053-2.072,1.787-2.775c1.22-1.17,2.736-1.754,4.549-1.754c1.88,0,3.376,0.561,4.485,1.682
						c1.11,1.122,1.665,2.469,1.665,4.041c0,1.131-0.314,2.167-0.94,3.106c-0.407,0.594-1.652,1.85-3.736,3.768
						c-2.084,1.917-3.473,3.643-4.168,5.177c-0.303,0.669-0.535,2.237-0.7,3.792c-0.227,2.131,1.258,4.002,3.155,4.002l0,0
						c1.563,0,2.914-1.296,3.133-3.048c0.083-0.666,0.207-1.193,0.371-1.583c0.364-0.863,1.3-2.004,2.808-3.423
						c2.914-2.742,4.816-4.909,5.705-6.5c0.889-1.592,1.334-3.279,1.334-5.062C189.587,76.066,188.376,73.243,185.953,70.817z"/>
				</g>
			</g>
		</g>
	</g>
</g>
</svg>
