<?xml version="1.0" encoding="utf-8"?>
<!-- Generator: Adobe Illustrator 27.5.0, SVG Export Plug-In . SVG Version: 6.00 Build 0)  -->
<svg version="1.1" xmlns="http://www.w3.org/2000/svg" xmlns:xlink="http://www.w3.org/1999/xlink" x="0px" y="0px"
	 viewBox="0 0 500 500" style="enable-background:new 0 0 500 500;" xml:space="preserve">
<g id="Background_Simple">
	<g>
		<path style="opacity:0.7;fill:#FFFFFF;" d="M67.931,167.086c0,0-27.877,71.988,11.297,144.503
			c39.174,72.516,119.879,110.802,184.469,143.548c64.59,32.746,131.661,16.799,163.534-36.838
			c31.873-53.637-11.845-91.928-11.897-168.418c-0.051-76.49,11.447-96.742-29.963-161.364
			c-41.41-64.623-143.059-78.925-219.9-30.996C88.631,105.45,67.931,167.086,67.931,167.086z"/>
	</g>
	<g>
		<path style="fill:#92E3A9;" d="M112.599,91.449c4.193-2.901,8.607-5.483,13.229-7.695c33.323-15.94,74.225-10.692,106.251,7.715
			c32.026,18.407,55.991,48.498,73.432,81.06c7.969,14.877,15.094,30.863,27.895,41.862c16.506,14.183,38.798,17.384,58.467,25.108
			c71.52,28.086,72.336,131.061,9.649,169.512c-24.711,15.157-55.229,19.73-83.625,21.847c-39.334,2.933-79.386,1.43-117.372-9.19
			c-37.986-10.62-73.927-30.825-99.341-60.99c-33.284-39.507-46.112-93.22-44.434-144.851c0.849-26.129,5.242-52.477,16.294-76.169
			C81.93,120.611,95.402,103.347,112.599,91.449z"/>
		<path style="opacity:0.7;fill:#FFFFFF;" d="M112.599,91.449c4.193-2.901,8.607-5.483,13.229-7.695
			c33.323-15.94,74.225-10.692,106.251,7.715c32.026,18.407,55.991,48.498,73.432,81.06c7.969,14.877,15.094,30.863,27.895,41.862
			c16.506,14.183,38.798,17.384,58.467,25.108c71.52,28.086,72.336,131.061,9.649,169.512
			c-24.711,15.157-55.229,19.73-83.625,21.847c-39.334,2.933-79.386,1.43-117.372-9.19c-37.986-10.62-73.927-30.825-99.341-60.99
			c-33.284-39.507-46.112-93.22-44.434-144.851c0.849-26.129,5.242-52.477,16.294-76.169
			C81.93,120.611,95.402,103.347,112.599,91.449z"/>
	</g>
</g>
<g id="Clouds">
	<g>
		<g>
			<path style="fill:none;stroke:#263238;stroke-linecap:round;stroke-linejoin:round;stroke-miterlimit:10;" d="M135.364,134.915
				c0.342-1.486,0.528-3.03,0.528-4.619c0-11.339-9.192-20.532-20.532-20.532c-1.854,0-3.65,0.25-5.358,0.711
				c-3.381-5.983-9.796-10.025-17.158-10.025c-10.463,0-19.017,8.159-19.656,18.461c-0.966-0.181-1.96-0.286-2.979-0.286
				c-8.277,0-15.087,6.247-15.992,14.282c-4.86,0.105-8.769,4.07-8.769,8.955c0,4.951,4.014,8.965,8.965,8.965H129.7
				c4.951,0,8.965-4.014,8.965-8.965C138.665,139.06,137.378,136.559,135.364,134.915z"/>
			<g>
				
					<line style="fill:none;stroke:#263238;stroke-linecap:round;stroke-linejoin:round;stroke-miterlimit:10;" x1="80.595" y1="166.061" x2="80.595" y2="186.808"/>
				
					<line style="fill:none;stroke:#263238;stroke-linecap:round;stroke-linejoin:round;stroke-miterlimit:10;" x1="80.595" y1="153.613" x2="80.595" y2="161.911"/>
				
					<line style="fill:none;stroke:#263238;stroke-linecap:round;stroke-linejoin:round;stroke-miterlimit:10;" x1="80.595" y1="145.857" x2="80.595" y2="150.296"/>
				<polyline style="fill:none;stroke:#263238;stroke-linecap:round;stroke-linejoin:round;stroke-miterlimit:10;" points="
					76.677,184.383 80.595,189.233 84.513,184.383 				"/>
			</g>
			<g>
				
					<line style="fill:none;stroke:#263238;stroke-linecap:round;stroke-linejoin:round;stroke-miterlimit:10;" x1="93.967" y1="174.95" x2="93.967" y2="195.697"/>
				
					<line style="fill:none;stroke:#263238;stroke-linecap:round;stroke-linejoin:round;stroke-miterlimit:10;" x1="93.967" y1="162.502" x2="93.967" y2="170.8"/>
				
					<line style="fill:none;stroke:#263238;stroke-linecap:round;stroke-linejoin:round;stroke-miterlimit:10;" x1="93.967" y1="154.747" x2="93.967" y2="159.186"/>
				<polyline style="fill:none;stroke:#263238;stroke-linecap:round;stroke-linejoin:round;stroke-miterlimit:10;" points="
					90.049,193.272 93.967,198.122 97.885,193.272 				"/>
			</g>
			<g>
				
					<line style="fill:none;stroke:#263238;stroke-linecap:round;stroke-linejoin:round;stroke-miterlimit:10;" x1="106.461" y1="157.511" x2="106.461" y2="178.258"/>
				
					<line style="fill:none;stroke:#263238;stroke-linecap:round;stroke-linejoin:round;stroke-miterlimit:10;" x1="106.461" y1="145.063" x2="106.461" y2="153.362"/>
				
					<line style="fill:none;stroke:#263238;stroke-linecap:round;stroke-linejoin:round;stroke-miterlimit:10;" x1="106.461" y1="137.308" x2="106.461" y2="141.747"/>
				<polyline style="fill:none;stroke:#263238;stroke-linecap:round;stroke-linejoin:round;stroke-miterlimit:10;" points="
					102.543,175.833 106.462,180.683 110.38,175.833 				"/>
			</g>
		</g>
		<g>
			<path style="fill:none;stroke:#263238;stroke-linecap:round;stroke-linejoin:round;stroke-miterlimit:10;" d="M305.125,275.09
				c-0.342-1.486-0.528-3.03-0.528-4.62c0-11.339,9.192-20.532,20.531-20.532c1.855,0,3.65,0.25,5.359,0.711
				c3.381-5.983,9.796-10.025,17.158-10.025c10.463,0,19.017,8.159,19.656,18.461c0.966-0.181,1.96-0.286,2.979-0.286
				c8.277,0,15.087,6.247,15.992,14.282c4.86,0.105,8.769,4.07,8.769,8.955c0,4.951-4.014,8.965-8.965,8.965h-75.287
				c-4.951,0-8.965-4.014-8.965-8.965C301.823,279.235,303.111,276.734,305.125,275.09z"/>
			<g>
				
					<line style="fill:none;stroke:#263238;stroke-linecap:round;stroke-linejoin:round;stroke-miterlimit:10;" x1="356.69" y1="298.631" x2="356.69" y2="277.884"/>
				
					<line style="fill:none;stroke:#263238;stroke-linecap:round;stroke-linejoin:round;stroke-miterlimit:10;" x1="356.69" y1="311.079" x2="356.69" y2="302.781"/>
				
					<line style="fill:none;stroke:#263238;stroke-linecap:round;stroke-linejoin:round;stroke-miterlimit:10;" x1="356.69" y1="318.834" x2="356.69" y2="314.395"/>
				<polyline style="fill:none;stroke:#263238;stroke-linecap:round;stroke-linejoin:round;stroke-miterlimit:10;" points="
					360.608,280.309 356.69,275.459 352.772,280.309 				"/>
			</g>
			<g>
				
					<line style="fill:none;stroke:#263238;stroke-linecap:round;stroke-linejoin:round;stroke-miterlimit:10;" x1="343.318" y1="289.742" x2="343.318" y2="268.995"/>
				
					<line style="fill:none;stroke:#263238;stroke-linecap:round;stroke-linejoin:round;stroke-miterlimit:10;" x1="343.318" y1="302.19" x2="343.318" y2="293.892"/>
				
					<line style="fill:none;stroke:#263238;stroke-linecap:round;stroke-linejoin:round;stroke-miterlimit:10;" x1="343.318" y1="309.945" x2="343.318" y2="305.506"/>
				<polyline style="fill:none;stroke:#263238;stroke-linecap:round;stroke-linejoin:round;stroke-miterlimit:10;" points="
					347.236,271.42 343.318,266.57 339.4,271.42 				"/>
			</g>
			<g>
				
					<line style="fill:none;stroke:#263238;stroke-linecap:round;stroke-linejoin:round;stroke-miterlimit:10;" x1="330.824" y1="307.181" x2="330.824" y2="286.434"/>
				
					<line style="fill:none;stroke:#263238;stroke-linecap:round;stroke-linejoin:round;stroke-miterlimit:10;" x1="330.824" y1="319.629" x2="330.824" y2="311.33"/>
				
					<line style="fill:none;stroke:#263238;stroke-linecap:round;stroke-linejoin:round;stroke-miterlimit:10;" x1="330.824" y1="327.384" x2="330.824" y2="322.945"/>
				<polyline style="fill:none;stroke:#263238;stroke-linecap:round;stroke-linejoin:round;stroke-miterlimit:10;" points="
					334.742,288.859 330.824,284.009 326.906,288.859 				"/>
			</g>
		</g>
	</g>
	<line style="fill:none;stroke:#263238;stroke-miterlimit:10;" x1="34.333" y1="445.477" x2="468.297" y2="445.477"/>
</g>
<g id="Plant">
	<g>
		<g>
			<path style="fill:#92E3A9;stroke:#263238;stroke-linecap:round;stroke-linejoin:round;stroke-miterlimit:10;" d="
				M362.789,383.995c0,0,17.238,1.36,17.957,14.079C380.746,398.074,363.29,406.111,362.789,383.995z"/>
			<path style="fill:#92E3A9;stroke:#263238;stroke-linecap:round;stroke-linejoin:round;stroke-miterlimit:10;" d="
				M396.889,387.153c0,0,9.63-13.02,25.191-6.343C422.08,380.81,412.578,396.551,396.889,387.153z"/>
			<path style="fill:#92E3A9;stroke:#263238;stroke-linecap:round;stroke-linejoin:round;stroke-miterlimit:10;" d="
				M420.761,346.046c0,0,2.769,25.049-20.031,18.151C400.73,364.197,407.97,345.782,420.761,346.046z"/>
			<path style="fill:#92E3A9;stroke:#263238;stroke-linecap:round;stroke-linejoin:round;stroke-miterlimit:10;" d="
				M392.767,332.102c0,0,18.032,9.724,4.774,24.479C397.54,356.581,384.894,346.043,392.767,332.102z"/>
			<path style="fill:#92E3A9;stroke:#263238;stroke-linecap:round;stroke-linejoin:round;stroke-miterlimit:10;" d="
				M370.579,354.485c0,0,19.606-1.978,19.606,16.171C390.185,370.656,370.579,371.428,370.579,354.485z"/>
			<path style="fill:none;stroke:#263238;stroke-linecap:round;stroke-linejoin:round;stroke-miterlimit:10;" d="M389.068,423.98
				c0,0-8.939-18.758-0.359-37.862c8.58-19.105,11.481-35.192,6.998-46.533"/>
			<path style="fill:none;stroke:#263238;stroke-linecap:round;stroke-linejoin:round;stroke-miterlimit:10;" d="M377.02,359.364
				c0,0,11.752,4.669,15.746,16.774"/>
			<path style="fill:none;stroke:#263238;stroke-linecap:round;stroke-linejoin:round;stroke-miterlimit:10;" d="M414.564,356.068
				c0,0-6.791,9.251-18.297,8.252"/>
			<path style="fill:none;stroke:#263238;stroke-linecap:round;stroke-linejoin:round;stroke-miterlimit:10;" d="M414.564,383.471
				c0,0-18.809,5.419-26.284,3.645"/>
			<path style="fill:none;stroke:#263238;stroke-linecap:round;stroke-linejoin:round;stroke-miterlimit:10;" d="M368.41,389.723
				c0,0,8.407,9.228,16.863,9.083"/>
		</g>
		<polygon id="XMLID_117_" style="fill:#263238;" points="367.464,409.117 406.933,409.117 402.799,445.195 371.598,445.195 		"/>
		<path style="fill:#263238;" d="M407.635,413.409h-40.873c-0.549,0-0.995-0.445-0.995-0.995v-3.099
			c0-0.549,0.445-0.995,0.995-0.995h40.873c0.549,0,0.995,0.445,0.995,0.995v3.099C408.629,412.964,408.184,413.409,407.635,413.409
			z"/>
		
			<line style="fill:none;stroke:#FFFFFF;stroke-linecap:round;stroke-linejoin:round;stroke-miterlimit:10;" x1="370.579" y1="413.409" x2="394.352" y2="413.409"/>
		
			<line style="fill:none;stroke:#FFFFFF;stroke-linecap:round;stroke-linejoin:round;stroke-miterlimit:10;" x1="398.835" y1="413.409" x2="402.407" y2="413.409"/>
	</g>
</g>
<g id="Interface">
	<g>
		<g>
			<defs>
				<path id="XMLID_114_" d="M460.43,106.79v146.03c0,3.7-3,6.7-6.7,6.7H170.98c-3.7,0-6.71-3-6.71-6.7V106.79
					c0-3.7,3.01-6.7,6.71-6.7h282.75C457.43,100.09,460.43,103.09,460.43,106.79z"/>
			</defs>
			<use xlink:href="#XMLID_114_"  style="overflow:visible;fill:#FFFFFF;"/>
			<clipPath id="XMLID_00000020394118571226582000000007828785846595631544_">
				<use xlink:href="#XMLID_114_"  style="overflow:visible;"/>
			</clipPath>
			<path style="opacity:0.2;clip-path:url(#XMLID_00000020394118571226582000000007828785846595631544_);fill:#92E3A9;" d="
				M460.43,114.55v138.27c0,3.7-3,6.7-6.7,6.7H275.84V114.55H460.43z"/>
			
				<use xlink:href="#XMLID_114_"  style="overflow:visible;fill:none;stroke:#263238;stroke-linecap:round;stroke-linejoin:round;stroke-miterlimit:10;"/>
		</g>
		<path style="fill:#92E3A9;stroke:#263238;stroke-linecap:round;stroke-linejoin:round;stroke-miterlimit:10;" d="M435.664,173.626
			H398.87c-4.103,0-7.429,3.326-7.429,7.429l0,0c0,4.103,3.326,7.429,7.429,7.429h36.794c4.103,0,7.429-3.326,7.429-7.429l0,0
			C443.092,176.952,439.766,173.626,435.664,173.626z"/>
		<path style="fill:#999999;stroke:#263238;stroke-linecap:round;stroke-linejoin:round;stroke-miterlimit:10;" d="M460.43,106.79
			v13.68H164.27v-13.68c0-3.7,3.01-6.7,6.71-6.7h282.75C457.43,100.09,460.43,103.09,460.43,106.79z"/>
		
			<circle style="fill:#92E3A9;stroke:#263238;stroke-linecap:round;stroke-linejoin:round;stroke-miterlimit:10;" cx="176.802" cy="109.934" r="4.615"/>
		
			<circle style="fill:#757575;stroke:#263238;stroke-linecap:round;stroke-linejoin:round;stroke-miterlimit:10;" cx="189.302" cy="109.934" r="4.615"/>
		
			<circle style="fill:#FFFFFF;stroke:#263238;stroke-linecap:round;stroke-linejoin:round;stroke-miterlimit:10;" cx="201.802" cy="109.934" r="4.615"/>
		
			<line style="fill:none;stroke:#263238;stroke-linecap:round;stroke-linejoin:round;stroke-miterlimit:10;" x1="275.835" y1="120.47" x2="275.835" y2="259.65"/>
		<path style="fill:#FFFFFF;stroke:#263238;stroke-linecap:round;stroke-linejoin:round;stroke-miterlimit:10;" d="M450.352,114.549
			h-64.747c-2.549,0-4.615-2.066-4.615-4.615l0,0c0-2.549,2.066-4.615,4.615-4.615h64.747c2.549,0,4.615,2.066,4.615,4.615l0,0
			C454.967,112.483,452.901,114.549,450.352,114.549z"/>
		<path style="fill:#BFBFBF;stroke:#263238;stroke-miterlimit:10;" d="M438.543,163.341H298.424c-2.513,0-4.549-2.037-4.549-4.549
			l0,0c0-2.513,2.037-4.549,4.549-4.549h140.119c2.513,0,4.549,2.037,4.549,4.549l0,0
			C443.092,161.304,441.056,163.341,438.543,163.341z"/>
		<path style="fill:#92E3A9;stroke:#263238;stroke-linecap:round;stroke-linejoin:round;stroke-miterlimit:10;" d="M373.543,163.341
			h-75.119c-2.513,0-4.549-2.037-4.549-4.549l0,0c0-2.513,2.037-4.549,4.549-4.549h75.119c2.513,0,4.549,2.037,4.549,4.549l0,0
			C378.092,161.304,376.056,163.341,373.543,163.341z"/>
		<g>
			
				<rect x="298.011" y="227.96" style="fill:none;stroke:#263238;stroke-linecap:round;stroke-linejoin:round;stroke-miterlimit:10;" width="6.174" height="6.174"/>
			<polyline style="fill:none;stroke:#263238;stroke-linecap:round;stroke-linejoin:round;stroke-miterlimit:10;" points="
				299.887,230.624 300.798,231.861 302.31,229.71 			"/>
		</g>
		<path style="opacity:0.3;" d="M357.693,232.844h-42.022c-0.992,0-1.797-0.805-1.797-1.797v0c0-0.992,0.805-1.797,1.797-1.797
			h42.022c0.992,0,1.797,0.805,1.797,1.797v0C359.49,232.039,358.686,232.844,357.693,232.844z"/>
		<g>
			<g>
				<path style="fill:#263238;" d="M206.819,234.728h0.024l0.996-6.849h1.211l-1.295,8.396h-1.967l-1.295-8.396h1.332
					L206.819,234.728z"/>
				<path style="fill:#263238;" d="M210.983,231.417h1.811v1.199h-1.811v2.459h2.279v1.199h-3.598v-8.396h3.598v1.199h-2.279
					V231.417z"/>
				<path style="fill:#263238;" d="M216.838,236.275c-0.072-0.216-0.12-0.348-0.12-1.031v-1.319c0-0.779-0.264-1.067-0.863-1.067
					h-0.456v3.418h-1.319v-8.396h1.991c1.367,0,1.955,0.636,1.955,1.931v0.66c0,0.863-0.276,1.415-0.864,1.691v0.023
					c0.66,0.276,0.876,0.899,0.876,1.775v1.295c0,0.408,0.012,0.708,0.144,1.02H216.838z M215.399,229.079v2.579h0.516
					c0.492,0,0.792-0.216,0.792-0.888v-0.827c0-0.601-0.204-0.864-0.672-0.864H215.399z"/>
				<path style="fill:#263238;" d="M220.175,235.003v1.271h-1.271v-1.271H220.175z"/>
				<path style="fill:#263238;" d="M224.927,228.983c-0.42,0-0.684,0.228-0.684,0.827v0.9h-1.247v-0.816
					c0-1.343,0.671-2.11,1.967-2.11c1.295,0,1.967,0.768,1.967,2.11c0,1.116-0.408,2.016-1.631,3.322
					c-0.78,0.84-0.996,1.235-0.996,1.68c0,0.06,0,0.119,0.012,0.18h2.495v1.199h-3.814v-1.031c0-0.936,0.335-1.644,1.319-2.675
					c1.008-1.067,1.296-1.727,1.296-2.626C225.61,229.187,225.347,228.983,224.927,228.983z"/>
				<path style="fill:#263238;" d="M229.019,235.003v1.271h-1.271v-1.271H229.019z"/>
				<path style="fill:#263238;" d="M229.872,229.894c0-1.343,0.708-2.11,2.003-2.11c1.295,0,2.003,0.768,2.003,2.11v4.366
					c0,1.343-0.708,2.11-2.003,2.11c-1.295,0-2.003-0.768-2.003-2.11V229.894z M231.191,234.344c0,0.6,0.264,0.827,0.684,0.827
					c0.42,0,0.684-0.228,0.684-0.827v-4.534c0-0.6-0.264-0.827-0.684-0.827c-0.419,0-0.684,0.228-0.684,0.827V234.344z"/>
				<path style="fill:#263238;" d="M235.919,233.564v0.78c0,0.6,0.264,0.816,0.684,0.816c0.42,0,0.684-0.216,0.684-0.816v-1.848
					c0-0.6-0.264-0.827-0.684-0.827c-0.419,0-0.684,0.228-0.684,0.827v0.252h-1.247l0.24-4.869h3.478v1.199h-2.303l-0.108,2.003
					h0.024c0.24-0.395,0.612-0.611,1.14-0.611c0.971,0,1.463,0.684,1.463,1.919v1.871c0,1.343-0.671,2.11-1.967,2.11
					c-1.295,0-1.967-0.768-1.967-2.11v-0.696H235.919z"/>
			</g>
		</g>
		<g>
			<path style="fill:none;stroke:#263238;stroke-linecap:round;stroke-linejoin:round;stroke-miterlimit:10;" d="M200.01,202.798
				c-3.109-2.957-5.614-6.543-7.311-10.554"/>
			<path style="fill:none;stroke:#263238;stroke-linecap:round;stroke-linejoin:round;stroke-miterlimit:10;" d="M228.812,149.357
				c10.194,2.362,18.488,9.68,22.209,19.277"/>
			<path style="fill:#92E3A9;stroke:#263238;stroke-linecap:round;stroke-linejoin:round;stroke-miterlimit:10;" d="
				M231.465,172.021v-8.961l-6.713-0.578c-0.4-1.416-0.955-2.765-1.66-4.023l4.333-5.151l-6.337-6.337l-5.151,4.333
				c-1.257-0.705-2.606-1.26-4.023-1.66l-0.578-6.713h-8.961l-0.579,6.713c-1.416,0.4-2.765,0.955-4.022,1.66l-5.151-4.333
				l-6.336,6.337l4.333,5.151c-0.705,1.257-1.26,2.606-1.66,4.023l-6.713,0.578v8.961l6.713,0.578c0.4,1.416,0.955,2.765,1.66,4.023
				l-4.333,5.151l6.336,6.337l5.151-4.333c1.258,0.705,2.606,1.26,4.023,1.66l0.579,6.713h8.961l0.578-6.713
				c1.416-0.4,2.765-0.955,4.023-1.66l5.15,4.333l6.337-6.337l-4.333-5.151c0.705-1.257,1.26-2.606,1.66-4.023L231.465,172.021z
				 M206.857,177.953c-5.751,0-10.413-4.662-10.413-10.413c0-5.751,4.662-10.413,10.413-10.413s10.413,4.662,10.413,10.413
				C217.27,173.291,212.608,177.953,206.857,177.953z"/>
			<g>
				<defs>
					<path id="XMLID_116_" d="M261.116,192.025v-6.377l-4.777-0.412c-0.284-1.008-0.679-1.968-1.181-2.862l3.084-3.665l-4.509-4.509
						l-3.665,3.084c-0.895-0.502-1.855-0.897-2.862-1.181l-0.412-4.777h-6.377l-0.412,4.777c-1.008,0.285-1.968,0.679-2.862,1.181
						l-3.665-3.084l-4.509,4.509l3.083,3.665c-0.502,0.895-0.897,1.855-1.181,2.863l-4.777,0.412v6.377l4.777,0.412
						c0.285,1.008,0.679,1.968,1.181,2.862l-3.083,3.665l4.509,4.509l3.665-3.083c0.895,0.502,1.855,0.897,2.862,1.181l0.412,4.777
						h6.377l0.412-4.777c1.008-0.285,1.968-0.679,2.863-1.181l3.665,3.083l4.509-4.509l-3.084-3.665
						c0.502-0.895,0.897-1.855,1.181-2.862L261.116,192.025z M243.605,196.246c-4.092,0-7.41-3.318-7.41-7.41
						c0-4.092,3.318-7.41,7.41-7.41c4.092,0,7.41,3.318,7.41,7.41C251.015,192.928,247.697,196.246,243.605,196.246z"/>
				</defs>
				<use xlink:href="#XMLID_116_"  style="overflow:visible;fill:#92E3A9;"/>
				<clipPath id="XMLID_00000085215377749235855430000000669277336660819086_">
					<use xlink:href="#XMLID_116_"  style="overflow:visible;"/>
				</clipPath>
				<path style="opacity:0.3;clip-path:url(#XMLID_00000085215377749235855430000000669277336660819086_);fill:#FFFFFF;" d="
					M261.116,192.025v-6.377l-4.777-0.412c-0.284-1.008-0.679-1.968-1.181-2.862l3.084-3.665l-4.509-4.509l-3.665,3.084
					c-0.895-0.502-1.855-0.897-2.862-1.181l-0.412-4.777h-6.377l-0.412,4.777c-1.008,0.285-1.968,0.679-2.862,1.181l-3.665-3.084
					l-4.509,4.509l3.083,3.665c-0.502,0.895-0.897,1.855-1.181,2.863l-4.777,0.412v6.377l4.777,0.412
					c0.285,1.008,0.679,1.968,1.181,2.862l-3.083,3.665l4.509,4.509l3.665-3.083c0.895,0.502,1.855,0.897,2.862,1.181l0.412,4.777
					h6.377l0.412-4.777c1.008-0.285,1.968-0.679,2.863-1.181l3.665,3.083l4.509-4.509l-3.084-3.665
					c0.502-0.895,0.897-1.855,1.181-2.862L261.116,192.025z M243.605,196.246c-4.092,0-7.41-3.318-7.41-7.41
					c0-4.092,3.318-7.41,7.41-7.41c4.092,0,7.41,3.318,7.41,7.41C251.015,192.928,247.697,196.246,243.605,196.246z"/>
				
					<use xlink:href="#XMLID_116_"  style="overflow:visible;fill:none;stroke:#263238;stroke-linecap:round;stroke-linejoin:round;stroke-miterlimit:10;"/>
			</g>
			<g>
				<defs>
					<path id="XMLID_115_" d="M229.922,206.877v-4.538l-3.399-0.293c-0.202-0.717-0.484-1.4-0.841-2.037l2.194-2.608l-3.209-3.208
						l-2.608,2.194c-0.637-0.357-1.32-0.638-2.037-0.84l-0.293-3.399h-4.538l-0.293,3.399c-0.717,0.202-1.4,0.484-2.037,0.84
						l-2.608-2.194l-3.208,3.208l2.194,2.608c-0.357,0.637-0.638,1.32-0.84,2.037l-3.399,0.293v4.538l3.399,0.293
						c0.202,0.717,0.484,1.4,0.84,2.037l-2.194,2.608l3.208,3.208l2.608-2.194c0.637,0.357,1.32,0.638,2.037,0.84l0.293,3.399h4.538
						l0.293-3.399c0.717-0.202,1.4-0.484,2.037-0.84l2.608,2.194l3.209-3.208l-2.194-2.608c0.357-0.637,0.638-1.32,0.841-2.037
						L229.922,206.877z M217.462,209.881c-2.912,0-5.273-2.361-5.273-5.273c0-2.912,2.361-5.273,5.273-5.273
						c2.912,0,5.273,2.361,5.273,5.273C222.734,207.521,220.374,209.881,217.462,209.881z"/>
				</defs>
				<use xlink:href="#XMLID_115_"  style="overflow:visible;fill:#92E3A9;"/>
				<clipPath id="XMLID_00000098197139265934158420000015842164783264916141_">
					<use xlink:href="#XMLID_115_"  style="overflow:visible;"/>
				</clipPath>
				<path style="opacity:0.5;clip-path:url(#XMLID_00000098197139265934158420000015842164783264916141_);fill:#FFFFFF;" d="
					M229.922,206.877v-4.538l-3.399-0.293c-0.202-0.717-0.484-1.4-0.841-2.037l2.194-2.608l-3.209-3.208l-2.608,2.194
					c-0.637-0.357-1.32-0.638-2.037-0.84l-0.293-3.399h-4.538l-0.293,3.399c-0.717,0.202-1.4,0.484-2.037,0.84l-2.608-2.194
					l-3.208,3.208l2.194,2.608c-0.357,0.637-0.638,1.32-0.84,2.037l-3.399,0.293v4.538l3.399,0.293
					c0.202,0.717,0.484,1.4,0.84,2.037l-2.194,2.608l3.208,3.208l2.608-2.194c0.637,0.357,1.32,0.638,2.037,0.84l0.293,3.399h4.538
					l0.293-3.399c0.717-0.202,1.4-0.484,2.037-0.84l2.608,2.194l3.209-3.208l-2.194-2.608c0.357-0.637,0.638-1.32,0.841-2.037
					L229.922,206.877z M217.462,209.881c-2.912,0-5.273-2.361-5.273-5.273c0-2.912,2.361-5.273,5.273-5.273
					c2.912,0,5.273,2.361,5.273,5.273C222.734,207.521,220.374,209.881,217.462,209.881z"/>
				
					<use xlink:href="#XMLID_115_"  style="overflow:visible;fill:none;stroke:#263238;stroke-linecap:round;stroke-linejoin:round;stroke-miterlimit:10;"/>
			</g>
			<polyline style="fill:none;stroke:#263238;stroke-linecap:round;stroke-linejoin:round;stroke-miterlimit:10;" points="
				248.61,167.545 251.021,168.634 251.972,166.456 			"/>
			<polyline style="fill:none;stroke:#263238;stroke-linecap:round;stroke-linejoin:round;stroke-miterlimit:10;" points="
				195.055,193.237 192.643,192.148 191.692,194.326 			"/>
		</g>
		<g>
			<g>
				<path style="fill:#263238;" d="M295.193,142.991v4.911c0,0.454,0.199,0.618,0.518,0.618c0.318,0,0.519-0.164,0.519-0.618v-4.911
					h0.946v4.848c0,1.019-0.51,1.601-1.492,1.601c-0.982,0-1.491-0.582-1.491-1.601v-4.848H295.193z"/>
				<path style="fill:#263238;" d="M300.82,144.564v0.828c0,1.018-0.491,1.573-1.492,1.573h-0.473v2.392h-1v-6.366h1.473
					C300.329,142.991,300.82,143.546,300.82,144.564z M298.855,143.9v2.155h0.473c0.318,0,0.491-0.145,0.491-0.6v-0.955
					c0-0.455-0.173-0.6-0.491-0.6H298.855z"/>
				<path style="fill:#263238;" d="M304.401,149.357h-1.01l-0.173-1.155h-1.228l-0.173,1.155H300.9l1.018-6.366h1.464
					L304.401,149.357z M302.119,147.338h0.964l-0.474-3.219h-0.018L302.119,147.338z"/>
				<path style="fill:#263238;" d="M304.863,142.991h1.582c1,0,1.491,0.555,1.491,1.574v3.219c0,1.018-0.491,1.573-1.491,1.573
					h-1.582V142.991z M305.863,143.9v4.547h0.564c0.318,0,0.51-0.164,0.51-0.619v-3.31c0-0.455-0.191-0.619-0.51-0.619H305.863z"/>
				<path style="fill:#263238;" d="M311.8,149.357h-1.01l-0.173-1.155h-1.228l-0.173,1.155h-0.918l1.019-6.366h1.464L311.8,149.357z
					 M309.518,147.338h0.964l-0.474-3.219h-0.018L309.518,147.338z"/>
				<path style="fill:#263238;" d="M311.625,142.991h3.092v0.91h-1.045v5.456h-1.001V143.9h-1.046V142.991z"/>
				<path style="fill:#263238;" d="M315.151,142.991h1.001v6.366h-1.001V142.991z"/>
				<path style="fill:#263238;" d="M317.788,144.746h-0.019v4.611h-0.9v-6.366h1.256l1.009,3.811h0.018v-3.811h0.891v6.366h-1.027
					L317.788,144.746z"/>
				<path style="fill:#263238;" d="M322.26,145.81h1.4v2.019c0,1.019-0.509,1.601-1.491,1.601c-0.982,0-1.491-0.582-1.491-1.601
					v-3.31c0-1.018,0.509-1.6,1.491-1.6c0.983,0,1.491,0.582,1.491,1.6v0.618h-0.945v-0.682c0-0.455-0.2-0.627-0.518-0.627
					c-0.318,0-0.519,0.173-0.519,0.627v3.438c0,0.455,0.2,0.619,0.519,0.619c0.318,0,0.518-0.163,0.518-0.619v-1.173h-0.455V145.81z
					"/>
			</g>
		</g>
		<polygon style="fill:#263238;" points="452.086,192.571 435.471,180.719 440.201,200.573 443.606,195.511 446.751,200.182 
			449.26,198.493 446.115,193.822 		"/>
	</g>
</g>
<g id="Character">
	<g>
		<g>
			<defs>
				<path id="XMLID_107_" d="M254.011,281.637c2.051-2.887,15.554,5.151,13.893,10.862c-1.662,5.711-7.063,5.094-10.228,2.061
					C254.51,291.527,251.813,284.73,254.011,281.637z"/>
			</defs>
			<use xlink:href="#XMLID_107_"  style="overflow:visible;fill:#92E3A9;"/>
			<clipPath id="XMLID_00000176004675218877822740000009930278642644101048_">
				<use xlink:href="#XMLID_107_"  style="overflow:visible;"/>
			</clipPath>
			<path style="opacity:0.3;clip-path:url(#XMLID_00000176004675218877822740000009930278642644101048_);fill-opacity:0.7;" d="
				M254.011,281.637c2.051-2.887,15.554,5.151,13.893,10.862c-1.662,5.711-7.063,5.094-10.228,2.061
				C254.51,291.527,251.813,284.73,254.011,281.637z"/>
			
				<use xlink:href="#XMLID_107_"  style="overflow:visible;fill:none;stroke:#263238;stroke-linecap:round;stroke-linejoin:round;stroke-miterlimit:10;"/>
		</g>
		<g>
			<path style="fill:#FFFFFF;stroke:#263238;stroke-linecap:round;stroke-linejoin:round;stroke-miterlimit:10;" d="
				M260.414,259.466c0,0,1.956,0,5.317,7.714c2.344,5.379,1.036,10.644,1.036,10.644l-4.872,23.462l-11.932-7.121l6.886-17.226
				C256.85,276.939,253.283,265.813,260.414,259.466z"/>
			<g>
				<g>
					<defs>
						<path id="XMLID_106_" d="M255.612,274.571l-7.606,2.523c-0.804,0.207-2.392-1.136-2.322-1.963l2.256-26.583
							c0.091-1.073,0.851-1.971,1.894-2.24l8.426-1.83c0.804-0.207,2.828,0.755,2.758,1.582l-3.513,26.27
							C257.415,273.404,256.655,274.302,255.612,274.571z"/>
					</defs>
					<use xlink:href="#XMLID_106_"  style="overflow:visible;fill:#92E3A9;"/>
					<clipPath id="XMLID_00000075843568691648505660000014226738683024325291_">
						<use xlink:href="#XMLID_106_"  style="overflow:visible;"/>
					</clipPath>
					<path style="opacity:0.3;clip-path:url(#XMLID_00000075843568691648505660000014226738683024325291_);fill-opacity:0.7;" d="
						M255.612,274.571l-7.606,2.523c-0.804,0.207-2.392-1.136-2.322-1.963l2.256-26.583c0.091-1.073,0.851-1.971,1.894-2.24
						l8.426-1.83c0.804-0.207,2.828,0.755,2.758,1.582l-3.513,26.27C257.415,273.404,256.655,274.302,255.612,274.571z"/>
					
						<use xlink:href="#XMLID_106_"  style="overflow:visible;fill:none;stroke:#263238;stroke-linecap:round;stroke-linejoin:round;stroke-miterlimit:10;"/>
				</g>
				<path style="fill:#92E3A9;stroke:#263238;stroke-linecap:round;stroke-linejoin:round;stroke-miterlimit:10;" d="
					M256.864,275.226l-8.426,1.83c-0.804,0.207-1.572-0.442-1.501-1.269l2.257-26.583c0.091-1.073,0.851-1.971,1.894-2.24
					l8.426-1.83c0.804-0.207,1.572,0.442,1.501,1.269l-2.256,26.583C258.667,274.059,257.907,274.957,256.864,275.226z"/>
				<path style="opacity:0.3;fill-opacity:0.7;" d="M252.192,254.123l-1.359,0.295c-0.13,0.033-0.253-0.071-0.242-0.205l0.364-4.287
					c0.015-0.173,0.137-0.318,0.305-0.361l1.359-0.295c0.13-0.033,0.253,0.071,0.242,0.205l-0.364,4.287
					C252.483,253.935,252.36,254.08,252.192,254.123z"/>
			</g>
			<g>
				<path style="fill:#FFFFFF;stroke:#263238;stroke-linecap:round;stroke-linejoin:round;stroke-miterlimit:10;" d="
					M264.043,267.448c0.327-3.727-3.066-9.321-5.321-9.321c-2.255,0-9.128,5.291-9.128,5.291c-2.659,1.927-1.342,3.762-1.342,3.762
					c-1.565,1.034-1.992,2.432-1.278,3.081c0.799,0.725,2.989,0,2.989,0s-2.279,1.666-1.712,2.484
					c1.342,1.934,5.759-0.618,5.759-0.618s-2.563,1.691-2.416,2.011c0.967,2.111,5.152-0.35,5.152-0.35l2.942,1.507
					c0,0-0.033,2.491,2.681,2.529"/>
				<path style="fill:#FFFFFF;stroke:#263238;stroke-linecap:round;stroke-linejoin:round;stroke-miterlimit:10;" d="
					M248.252,267.18c0,0,6.432-4.156,7.243-4.269c0.811-0.112,3.791-0.759,3.791-0.759"/>
				<path style="fill:#FFFFFF;stroke:#263238;stroke-linecap:round;stroke-linejoin:round;stroke-miterlimit:10;" d="
					M249.964,270.26c0,0,5.225-2.698,6.181-2.698c1.004,0,4.269-0.737,4.269-0.737"/>
				<path style="fill:#FFFFFF;stroke:#263238;stroke-linecap:round;stroke-linejoin:round;stroke-miterlimit:10;" d="
					M254.011,272.126c0,0,1.389-0.964,1.933-1.139c0.544-0.175,3.745,0,3.745,0"/>
			</g>
		</g>
		<g>
			<defs>
				<path id="XMLID_108_" d="M202.554,271.992c10.022,0.151,32.967,35.975,32.967,35.975l14.442-17.987l4.047-8.342
					c0,0,1.966,14.999,13.893,10.862c0,0-10.478,39.38-22.221,44.127c-11.743,4.747-44.347-28.66-44.347-28.66L202.554,271.992z"/>
			</defs>
			<use xlink:href="#XMLID_108_"  style="overflow:visible;fill:#92E3A9;"/>
			<clipPath id="XMLID_00000010292251507996821680000014387580917798677919_">
				<use xlink:href="#XMLID_108_"  style="overflow:visible;"/>
			</clipPath>
			<path style="opacity:0.2;clip-path:url(#XMLID_00000010292251507996821680000014387580917798677919_);fill-opacity:0.7;" d="
				M203.368,309.99c4.13,4.05,13.91,13.31,23.44,19.88c-2.8-9.37-10.47-19.35-10.47-19.35c-2.38-0.79-5.74-7.92-5.74-7.92
				c-1.58,0.6-3.82-4.35-3.82-4.35C204.938,299.82,203.908,304.43,203.368,309.99z"/>
			<path style="opacity:0.2;clip-path:url(#XMLID_00000010292251507996821680000014387580917798677919_);fill-opacity:0.7;" d="
				M234.858,317.15c0,0-0.72-4.5,0.83-9.4l-0.17,0.22c0,0-1.56-2.43-4.04-6.03C230.828,306.61,230.498,314.39,234.858,317.15z"/>
			
				<use xlink:href="#XMLID_108_"  style="overflow:visible;fill:none;stroke:#263238;stroke-linecap:round;stroke-linejoin:round;stroke-miterlimit:10;"/>
		</g>
		<g>
			<path style="fill:#FFFFFF;stroke:#263238;stroke-linecap:round;stroke-linejoin:round;stroke-miterlimit:10;" d="M98.906,426.254
				c0,0-6.33,12.709-6.33,15.739c0,3.03-1.055,4.343-6.593,4.343c-5.538,0-19.253,0.124-21.363-0.859c0,0-10.978,0-12.824,0
				c-3.042,0-4.22-2.877-2.374-2.484c1.846,0.392,15.451-3.375,19.143-4.892c3.692-1.518,9.788-3.321,13.066-6.492
				c3.278-3.171,7.253-14.996,7.253-14.996L98.906,426.254z"/>
			<path style="fill:none;stroke:#263238;stroke-linecap:round;stroke-linejoin:round;stroke-miterlimit:10;" d="M64.62,445.477
				c0-3.719,3.956-1.938,10.022-3.484c3.87-0.987,4.273-2.353,4.273-2.353"/>
		</g>
		<g>
			<defs>
				<path id="XMLID_109_" d="M206.619,294.974c0.4,7.276,0.572,14.833,0.866,20.474c0.71,13.635,9.839,53.473,9.839,53.473
					s9.97,5.989,10.498,16.973c0.527,10.983-60.608,41.985-77.013,33.152s-14.189-34.513-14.189-34.513
					s-24.264-98.016-14.328-105.886s13.273-6.9,38.702-10.414c25.429-3.514,41.56,3.758,41.56,3.758s2.308,2.085,2.901,5.124"/>
			</defs>
			<use xlink:href="#XMLID_109_"  style="overflow:visible;fill:#92E3A9;"/>
			<clipPath id="XMLID_00000121280977479863823710000013042388805532826295_">
				<use xlink:href="#XMLID_109_"  style="overflow:visible;"/>
			</clipPath>
			<path style="opacity:0.2;clip-path:url(#XMLID_00000121280977479863823710000013042388805532826295_);fill-opacity:0.7;" d="
				M136.618,384.53c0,0-2.21,25.68,14.19,34.52c16.41,8.83,77.54-22.17,77.01-33.16c-0.52-10.98-10.49-16.97-10.49-16.97
				s-0.9-3.95-2.17-9.78c-8.67,5.62-28.43,17.28-41.29,15.98c0,0,21.41,7.59,35.1,1.07c13.7-6.53-5.69,8.58-9.64,8.34
				c-3.96-0.23-33.43-5.57-38.77-2.8c-5.34,2.76-17.21,23.14-17.21,23.14s-7.2-16.18-5.6-26.11c0,0,0.21-30.92-3.23-48.99
				c0,0,8.23-14.2-0.87-25.23c-3.36-4.07-7.03,4.31-10.32,16.5C128.218,350.58,136.618,384.53,136.618,384.53z"/>
			
				<use xlink:href="#XMLID_109_"  style="overflow:visible;fill:none;stroke:#263238;stroke-linecap:round;stroke-linejoin:round;stroke-miterlimit:10;"/>
		</g>
		<path style="fill:#263238;" d="M218.906,378.297c1.54-0.194,5.71,2.444,5.71,2.444s67.439-17.315,77.587-11.819
			c20.352,11.024,9.495,32.767,5.275,39.005c-4.22,6.238-66.461,35.717-88.088,36.275c-21.626,0.557-61.246-5.412-69.053-18.137
			c-7.807-12.725,0.186-26.85,11.037-37.218c11.041-10.549,32.572-1.319,39.961-3.429
			C210.866,382.696,214.204,378.89,218.906,378.297z"/>
		<g>
			<path style="fill:#FFFFFF;stroke:#263238;stroke-linecap:round;stroke-linejoin:round;stroke-miterlimit:10;" d="
				M162.496,437.548l-0.997,4.349c0,0,2.652,7.53,14.318,8.758c11.666,1.228,18.569,3.814,24.174,4.15
				c5.605,0.336,8.869-0.141,8.869-0.141l1.145-1.712L162.496,437.548z"/>
			<g>
				<defs>
					<path id="XMLID_110_" d="M230.214,437.089l-20.206,15.86c0,0-15.667-1.241-28.975-4.331l-0.001-0.01
						c-9.576-2.216-17.936-5.396-18.396-9.752c-0.7-6.623,6.379-8.437,14.793-8.179c1.572,0.035,3.184,0.156,4.811,0.327
						c13.466,1.444,30.579-5.995,30.579-5.995L230.214,437.089z"/>
				</defs>
				<use xlink:href="#XMLID_110_"  style="overflow:visible;fill:#92E3A9;"/>
				<clipPath id="XMLID_00000116213327316624383560000006599080157911051452_">
					<use xlink:href="#XMLID_110_"  style="overflow:visible;"/>
				</clipPath>
				<path style="opacity:0.2;clip-path:url(#XMLID_00000116213327316624383560000006599080157911051452_);fill-opacity:0.7;" d="
					M162.628,438.71c3.63,1.43,8.14,3.42,11.24,5.53c0,0,18.77,9.66,47.61-0.29l8.74-6.86l-17.4-12.08c0,0-17.11,7.44-30.58,5.99
					c-1.63-0.17-3.24-0.29-4.81-0.32C169.078,430.42,162.048,432.2,162.628,438.71z"/>
				
					<use xlink:href="#XMLID_110_"  style="overflow:visible;fill:none;stroke:#263238;stroke-linecap:round;stroke-linejoin:round;stroke-miterlimit:10;"/>
			</g>
			<g>
				<defs>
					<path id="XMLID_112_" d="M211.377,443.34c3.643,0.594-0.36,8.045-5.298,5.782C201.141,446.859,207.734,442.746,211.377,443.34z
						"/>
				</defs>
				<use xlink:href="#XMLID_112_"  style="overflow:visible;fill:#FFFFFF;"/>
				<clipPath id="XMLID_00000085932450096677816200000016860873993288986265_">
					<use xlink:href="#XMLID_112_"  style="overflow:visible;"/>
				</clipPath>
				<path style="opacity:0.2;clip-path:url(#XMLID_00000085932450096677816200000016860873993288986265_);fill-opacity:0.7;" d="
					M204.538,447.92c2.49-0.3,5.11-0.75,7.85-1.37c0.7-1.46,0.54-2.96-1.01-3.21C208.318,442.84,203.178,445.66,204.538,447.92z"/>
				
					<use xlink:href="#XMLID_112_"  style="overflow:visible;fill:none;stroke:#263238;stroke-linecap:round;stroke-linejoin:round;stroke-miterlimit:10;"/>
			</g>
			<g>
				<defs>
					<path id="XMLID_111_" d="M181.031,448.608c-9.576-2.216-17.936-5.396-18.396-9.752c-0.7-6.623,6.379-8.437,14.793-8.179
						C177.797,431.031,185.951,438.918,181.031,448.608z"/>
				</defs>
				<use xlink:href="#XMLID_111_"  style="overflow:visible;fill:#FFFFFF;"/>
				<clipPath id="XMLID_00000061437252853263618100000016548812767778553487_">
					<use xlink:href="#XMLID_111_"  style="overflow:visible;"/>
				</clipPath>
				<path style="opacity:0.2;clip-path:url(#XMLID_00000061437252853263618100000016548812767778553487_);fill-opacity:0.7;" d="
					M162.628,438.71c3.63,1.43,8.14,3.42,11.24,5.53c0,0,2.8,1.44,7.9,2.64c3.23-8.88-3.99-15.87-4.34-16.2
					C169.078,430.42,162.048,432.2,162.628,438.71z"/>
				
					<use xlink:href="#XMLID_111_"  style="overflow:visible;fill:none;stroke:#263238;stroke-linecap:round;stroke-linejoin:round;stroke-miterlimit:10;"/>
			</g>
			<g>
				<path style="fill:#FFFFFF;stroke:#263238;stroke-linecap:round;stroke-linejoin:round;stroke-miterlimit:10;" d="
					M187.861,440.383c-0.019,0.002-0.039,0.003-0.057,0.004c-0.552,0.027-1.021-0.399-1.047-0.95
					c-0.201-4.172-3.412-7.57-3.445-7.604c-0.381-0.399-0.369-1.031,0.029-1.413c0.398-0.382,1.029-0.369,1.412,0.027
					c0.153,0.16,3.763,3.958,4,8.894C188.779,439.872,188.384,440.327,187.861,440.383z"/>
			</g>
			<g>
				<path style="fill:#FFFFFF;stroke:#263238;stroke-linecap:round;stroke-linejoin:round;stroke-miterlimit:10;" d="
					M191.864,440.623c-0.028,0.003-0.057,0.005-0.086,0.005c-0.553,0.011-1.009-0.428-1.02-0.979
					c-0.084-4.215-3.031-7.87-3.061-7.907c-0.348-0.427-0.286-1.057,0.14-1.406c0.428-0.35,1.054-0.289,1.406,0.138
					c0.14,0.169,3.417,4.213,3.514,9.134C192.769,440.131,192.375,440.569,191.864,440.623z"/>
			</g>
			<g>
				<path style="fill:#FFFFFF;stroke:#263238;stroke-linecap:round;stroke-linejoin:round;stroke-miterlimit:10;" d="
					M196.651,440.117c-0.006,0.001-0.012,0.001-0.017,0.002c-0.55,0.048-1.036-0.359-1.084-0.909
					c-0.307-3.505-3.288-7.985-3.319-8.03c-0.307-0.459-0.185-1.079,0.274-1.387c0.457-0.31,1.08-0.185,1.387,0.272
					c0.135,0.201,3.298,4.95,3.651,8.97C197.59,439.579,197.192,440.06,196.651,440.117z"/>
			</g>
			<g>
				<path style="fill:#FFFFFF;stroke:#263238;stroke-linecap:round;stroke-linejoin:round;stroke-miterlimit:10;" d="
					M201.175,439.639c-0.088,0.009-0.179,0.007-0.271-0.008c-0.545-0.092-0.912-0.607-0.822-1.151
					c0.711-4.248-3.235-7.885-3.275-7.922c-0.408-0.37-0.44-1.002-0.071-1.411c0.369-0.409,1.001-0.442,1.411-0.073
					c0.197,0.178,4.801,4.398,3.908,9.736C201.979,439.263,201.61,439.593,201.175,439.639z"/>
			</g>
			<g>
				<path style="fill:#FFFFFF;stroke:#263238;stroke-linecap:round;stroke-linejoin:round;stroke-miterlimit:10;" d="
					M206.087,438.458c-0.107,0.011-0.218,0.005-0.329-0.02c-0.538-0.124-0.874-0.66-0.75-1.198c0.87-3.786-2.863-8.065-2.901-8.107
					c-0.365-0.414-0.326-1.046,0.087-1.411c0.412-0.366,1.044-0.328,1.41,0.084c0.183,0.206,4.455,5.087,3.352,9.883
					C206.858,438.114,206.5,438.414,206.087,438.458z"/>
			</g>
		</g>
		<g>
			<path style="fill:#FFFFFF;stroke:#263238;stroke-linecap:round;stroke-linejoin:round;stroke-miterlimit:10;" d="M310.03,431.044
				l1.448,4.22c0,0-1.846,7.767-13.319,10.213c-11.473,2.446-18.066,5.743-23.604,6.666c-5.539,0.923-8.835,0.791-8.835,0.791
				l-1.319-1.583L310.03,431.044z"/>
			<g>
				<defs>
					<path id="XMLID_113_" d="M242.638,437.7l21.76,13.65c0,0,15.45-2.88,28.36-7.35v-0.01c9.29-3.21,17.27-7.25,17.27-11.63
						c0-6.66-7.23-7.72-15.57-6.58c-1.56,0.2-3.15,0.49-4.75,0.83c-13.24,2.85-31.04-2.75-31.04-2.75L242.638,437.7z"/>
				</defs>
				<use xlink:href="#XMLID_113_"  style="overflow:visible;fill:#92E3A9;"/>
				<clipPath id="XMLID_00000065765206959352031340000001327388261001366421_">
					<use xlink:href="#XMLID_113_"  style="overflow:visible;"/>
				</clipPath>
				<path style="opacity:0.2;clip-path:url(#XMLID_00000065765206959352031340000001327388261001366421_);fill-opacity:0.7;" d="
					M242.638,437.7l12.8,8.03c12.85-3.87,21.21-12.06,25.99-18.31c-11.35,0.03-22.76-3.56-22.76-3.56L242.638,437.7z"/>
				
					<use xlink:href="#XMLID_113_"  style="overflow:visible;fill:none;stroke:#263238;stroke-linecap:round;stroke-linejoin:round;stroke-miterlimit:10;"/>
			</g>
			<path style="fill:#FFFFFF;stroke:#263238;stroke-linecap:round;stroke-linejoin:round;stroke-miterlimit:10;" d="M292.758,443.99
				c9.29-3.21,17.27-7.25,17.27-11.63c0-6.66-7.23-7.72-15.57-6.58C294.128,426.17,286.848,434.87,292.758,443.99z"/>
			<g>
				<path style="fill:#FFFFFF;stroke:#263238;stroke-linecap:round;stroke-linejoin:round;stroke-miterlimit:10;" d="
					M285.103,436.527c0.02,0,0.039-0.001,0.058-0.002c0.552-0.031,0.974-0.504,0.941-1.055c-0.238-4.17,2.598-7.887,2.627-7.924
					c0.337-0.436,0.258-1.065-0.178-1.402c-0.436-0.338-1.063-0.259-1.401,0.175c-0.136,0.175-3.326,4.331-3.044,9.265
					C284.136,436.116,284.577,436.527,285.103,436.527z"/>
			</g>
			<g>
				<path style="fill:#FFFFFF;stroke:#263238;stroke-linecap:round;stroke-linejoin:round;stroke-miterlimit:10;" d="
					M281.147,437.186c0.028,0,0.058-0.001,0.086-0.004c0.551-0.047,0.959-0.531,0.911-1.081c-0.359-4.2,2.188-8.145,2.214-8.185
					c0.302-0.461,0.174-1.081-0.287-1.384c-0.463-0.303-1.079-0.177-1.384,0.285c-0.121,0.183-2.956,4.549-2.535,9.453
					C280.196,436.793,280.633,437.186,281.147,437.186z"/>
			</g>
			<g>
				<path style="fill:#FFFFFF;stroke:#263238;stroke-linecap:round;stroke-linejoin:round;stroke-miterlimit:10;" d="
					M276.333,437.186c0.006,0,0.012,0,0.018,0c0.552-0.01,0.992-0.466,0.982-1.018c-0.063-3.518,2.432-8.286,2.457-8.334
					c0.257-0.488,0.07-1.093-0.418-1.351c-0.487-0.26-1.094-0.07-1.351,0.416c-0.113,0.214-2.76,5.269-2.689,9.304
					C275.343,436.75,275.789,437.186,276.333,437.186z"/>
			</g>
			<g>
				<path style="fill:#FFFFFF;stroke:#263238;stroke-linecap:round;stroke-linejoin:round;stroke-miterlimit:10;" d="
					M271.784,437.186c0.089,0,0.179-0.012,0.269-0.036c0.532-0.148,0.844-0.699,0.696-1.231c-1.153-4.149,2.389-8.182,2.425-8.222
					c0.367-0.411,0.332-1.043-0.078-1.411c-0.41-0.368-1.042-0.334-1.411,0.075c-0.177,0.197-4.313,4.878-2.863,10.093
					C270.945,436.897,271.347,437.186,271.784,437.186z"/>
			</g>
			<g>
				<path style="fill:#FFFFFF;stroke:#263238;stroke-linecap:round;stroke-linejoin:round;stroke-miterlimit:10;" d="
					M266.775,436.527c0.107,0,0.218-0.018,0.325-0.055c0.523-0.18,0.8-0.748,0.62-1.271c-1.263-3.674,2-8.321,2.033-8.367
					c0.319-0.45,0.215-1.074-0.234-1.395c-0.448-0.32-1.072-0.217-1.394,0.232c-0.16,0.224-3.897,5.526-2.296,10.181
					C265.972,436.267,266.36,436.527,266.775,436.527z"/>
			</g>
			<path style="fill:#FFFFFF;stroke:#263238;stroke-linecap:round;stroke-linejoin:round;stroke-miterlimit:10;" d="
				M262.027,441.939c-3.56,0.974,1.203,7.963,5.876,5.193C272.576,444.363,265.587,440.965,262.027,441.939z"/>
		</g>
		<path style="fill:#263238;" d="M166.95,383.571c13.185-2.309,48.189,16.109,69.64,28.382c2.847-1.666,5.046-3.074,6.052-3.97
			c4.939-4.401,23.789-28.632,36.791-34.17l23.736,31.055c-5.349,7.489-21.182,15.757-36.962,22.581
			c-1.697,2.805-5.15,8.049-9.895,12.929c-9.714,9.991-13.674,4.394-13.674,4.394s-6.134-0.688-15.196-1.93
			c-0.602,1.162-1.979,2.986-4.58,2.575c-1.179-0.186-3.447-1.871-6.006-4.095c-22.871-3.443-53.918-9.185-62.302-15.939
			C140.84,414.334,155.313,385.61,166.95,383.571z"/>
		<path style="fill:#92E3A9;stroke:#263238;stroke-linecap:round;stroke-linejoin:round;stroke-miterlimit:10;" d="M131.624,294.974
			c2.473,8.004,2.68,19.459,0.645,28.396c0,0-8.876,39.28-9.976,47.828c-1.1,8.549-16.133,41.785-16.925,52.662l-6.906,9.943
			c0,0-10.105-0.762-16.83-8.42l4.747-10.529c0,0,4.352-16.196,5.934-18.445c1.582-2.249,6.776-32.792,8.531-37.782
			s12.263-71.498,21.449-79.98c0,0,2.446-0.194,3.449,1.729"/>
		<g>
			<path style="fill:none;stroke:#FFFFFF;stroke-linecap:round;stroke-linejoin:round;stroke-miterlimit:10;" d="M265.123,421.453
				c-4.679-1.948-11.404,0-11.404,0s-22.07-9.612-37.187-18.761c-15.117-9.149-36.791-16.022-36.791-16.022
				c-8.308-0.593-12.264-0.396-16.22,3.956"/>
			<path style="fill:none;stroke:#FFFFFF;stroke-linecap:round;stroke-linejoin:round;stroke-miterlimit:10;" d="M153.434,416.612
				c0,0-0.111,6.702,9.39,11.343"/>
			<path style="fill:none;stroke:#FFFFFF;stroke-linecap:round;stroke-linejoin:round;stroke-miterlimit:10;" d="M258.269,388.648
				c0,0-15.009,10.847-18,18c0,0-5.77,2.455-8.523,4.392"/>
			<path style="fill:none;stroke:#FFFFFF;stroke-linecap:round;stroke-linejoin:round;stroke-miterlimit:10;" d="M239.179,397.665
				c-1.008,3.116-1.386,6.503-0.527,9.7"/>
			<path style="fill:none;stroke:#FFFFFF;stroke-linecap:round;stroke-linejoin:round;stroke-miterlimit:10;" d="M242.638,390.626
				c-0.823,1.184-1.529,2.449-2.148,3.751"/>
			<path style="fill:none;stroke:#FFFFFF;stroke-linecap:round;stroke-linejoin:round;stroke-miterlimit:10;" d="M221.28,389.637
				c0,0-5.018,6.706-6.268,12.155"/>
			<path style="fill:none;stroke:#FFFFFF;stroke-linecap:round;stroke-linejoin:round;stroke-miterlimit:10;" d="M193.329,430.192
				c-1.866-0.12-3.73-0.326-5.566-0.686"/>
			<path style="fill:none;stroke:#FFFFFF;stroke-linecap:round;stroke-linejoin:round;stroke-miterlimit:10;" d="M240.404,425.383
				c-13.696,2.617-28.696,4.617-43.139,4.953"/>
		</g>
		<path style="fill:none;stroke:#263238;stroke-linecap:round;stroke-linejoin:round;stroke-miterlimit:10;" d="M235.521,307.966
			c0,0-2.967,5.121,0,10.66"/>
		<g>
			<path style="fill:none;stroke:#263238;stroke-linecap:round;stroke-linejoin:round;stroke-miterlimit:10;" d="M156.256,278.039
				c6.902,4.282,16.582,7.902,23.826,2.337"/>
			<path style="fill:none;stroke:#263238;stroke-linecap:round;stroke-linejoin:round;stroke-miterlimit:10;" d="M150.809,274.121
				c0.938,0.795,1.921,1.537,2.925,2.246"/>
			<path style="fill:none;stroke:#263238;stroke-linecap:round;stroke-linejoin:round;stroke-miterlimit:10;" d="M210.158,300.801
				c-0.412,3.811-0.761,8.345-2.811,11.689"/>
			<path style="fill:none;stroke:#263238;stroke-linecap:round;stroke-linejoin:round;stroke-miterlimit:10;" d="M210.598,295.286
				c-0.051,1.039-0.123,2.077-0.21,3.114"/>
			<path style="fill:none;stroke:#263238;stroke-linecap:round;stroke-linejoin:round;stroke-miterlimit:10;" d="M214.322,312.49
				c0,0-2.392,2.534-6.915,1.368"/>
			<path style="fill:none;stroke:#263238;stroke-linecap:round;stroke-linejoin:round;stroke-miterlimit:10;" d="M137.412,302.604
				c0,0-0.301,16.415-5.788,23.636"/>
			<path style="fill:none;stroke:#263238;stroke-linecap:round;stroke-linejoin:round;stroke-miterlimit:10;" d="M168.664,373.946
				c-1.302-0.302-2.603-0.609-3.901-0.924"/>
			<path style="fill:none;stroke:#263238;stroke-linecap:round;stroke-linejoin:round;stroke-miterlimit:10;" d="M217.324,368.922
				C211.708,369,206.708,373,201.708,377c-10,6-20-2-30.396-2.447"/>
			<path style="fill:none;stroke:#263238;stroke-linecap:round;stroke-linejoin:round;stroke-miterlimit:10;" d="M139.777,365.764
				c-0.866,6.282-1.826,12.566-3.156,18.769"/>
			<path style="fill:none;stroke:#263238;stroke-linecap:round;stroke-linejoin:round;stroke-miterlimit:10;" d="M140.774,357.989
				c-0.177,1.518-0.368,3.034-0.565,4.549"/>
			<path style="fill:none;stroke:#263238;stroke-linecap:round;stroke-linejoin:round;stroke-miterlimit:10;" d="M195.616,336.107
				c-6.308,10.723-15.364,22.949-28.138,26.036"/>
			<path style="fill:none;stroke:#263238;stroke-linecap:round;stroke-linejoin:round;stroke-miterlimit:10;" d="M202.488,322.385
				c-1.531,3.789-3.37,7.467-5.345,11.043"/>
			<path style="fill:none;stroke:#263238;stroke-linecap:round;stroke-linejoin:round;stroke-miterlimit:10;" d="M120.684,316.283
				c-4.794,11.758-9.65,25.732-18.284,35.297"/>
			<path style="fill:none;stroke:#263238;stroke-linecap:round;stroke-linejoin:round;stroke-miterlimit:10;" d="M123.961,307.966
				c-0.662,1.757-1.347,3.505-2.041,5.249"/>
			<path style="fill:none;stroke:#263238;stroke-linecap:round;stroke-linejoin:round;stroke-miterlimit:10;" d="M108.532,386.426
				c0,0-11.472,9.437-16.22,9.983"/>
			<path style="fill:none;stroke:#263238;stroke-linecap:round;stroke-linejoin:round;stroke-miterlimit:10;" d="M89.229,426.471
				c-2.167-1.188-4.727-2.694-5.826-5.018"/>
			<path style="fill:none;stroke:#263238;stroke-linecap:round;stroke-linejoin:round;stroke-miterlimit:10;" d="M97.134,429.94
				c-1.725-0.599-3.419-1.289-5.077-2.051"/>
			<path style="fill:none;stroke:#263238;stroke-linecap:round;stroke-linejoin:round;stroke-miterlimit:10;" d="M255.089,297.46
				c1.271,1.215,2.835,2.233,4.6,2.509"/>
			<path style="fill:none;stroke:#263238;stroke-linecap:round;stroke-linejoin:round;stroke-miterlimit:10;" d="M249.964,289.979
				c0.775,1.696,1.728,3.318,2.824,4.826"/>
		</g>
		<g>
			<path style="fill:#FFFFFF;stroke:#263238;stroke-linecap:round;stroke-linejoin:round;stroke-miterlimit:10;" d="M152.288,269.81
				c0,0,6.99,10.09,18.99,8.71c6.62-0.77,5.94-5.87,5.94-5.87s-1.25-0.64-2-2.56c-0.71-1.81-0.98-4.76,0.67-9.37
				c0.04-0.13,0.09-0.27,0.14-0.4c1.88-5.05-20.77-12.07-20.77-12.07S158.028,261.31,152.288,269.81z"/>
			<path style="fill:#263238;" d="M163.258,257.24c0,0,4.2,10.47,11.96,12.85c-0.71-1.81-0.98-4.76,0.67-9.37L163.258,257.24z"/>
		</g>
		<g>
			<path style="fill:#FFFFFF;stroke:#263238;stroke-linecap:round;stroke-linejoin:round;stroke-miterlimit:10;" d="M161.192,254.78
				c-0.531,4.491,10.912,11.279,17.604,11.262c3.066-0.008,7.309-5.909,9.099-14.625c0.903-4.399-1.78-8.703,0.396-14.835
				c1.861-5.245-1.777-20.877-17.209-22.154c-22.053-1.825-24.619,21.816-14.855,37.762"/>
			<path style="fill:none;stroke:#263238;stroke-linecap:round;stroke-linejoin:round;stroke-miterlimit:10;" d="M188.736,235.396
				c0,0-1.83-2.769-5.391-1.978"/>
			<path style="fill:none;stroke:#263238;stroke-linecap:round;stroke-linejoin:round;stroke-miterlimit:10;" d="M176.027,233.275
				c0,0-4.549-0.451-7.319,2.12"/>
			<path style="fill:none;stroke:#263238;stroke-linecap:round;stroke-linejoin:round;stroke-miterlimit:10;" d="M182.159,236.385
				c-0.396,4.549,4.747,12.165,3.462,13.253c-1.286,1.088-4.352-0.396-5.538-0.989"/>
			<ellipse style="fill:#263238;" cx="174.148" cy="240.39" rx="0.89" ry="1.236"/>
			<ellipse style="fill:#263238;" cx="184.937" cy="240.39" rx="0.89" ry="1.236"/>
			<path style="fill:none;stroke:#263238;stroke-linecap:round;stroke-linejoin:round;stroke-miterlimit:10;" d="M182.06,254.484
				c0,0-5.242,0.692-7.912-2.077"/>
			<path style="fill:none;stroke:#263238;stroke-linecap:round;stroke-linejoin:round;stroke-miterlimit:10;" d="M175.038,253.145
				c0,0,0.297,2.525,3.066,3.217c2.769,0.692,2.67-1.802,2.67-1.802"/>
			<path style="fill:#263238;" d="M167.225,224.516c0,0,24.527,6.725,27.099-3.659c0,0-4.461,0.534-9.387-4.846
				c-6.042-6.6-15.734-8.308-23.943-5.341c-8.209,2.967-7.714,7.268-7.714,7.268s-4.846,0.645-7.022,6.48
				c-2.176,5.835,1.257,26.471,9.494,30.857l2.275-2.868c0,0-0.912-5.885,2.967-10.286l2.176,0.56c0,0-2.374-5.097,0.099-7.879
				C165.741,232.02,167.423,228.374,167.225,224.516z"/>
			<path style="fill:#FFFFFF;stroke:#263238;stroke-linecap:round;stroke-linejoin:round;stroke-miterlimit:10;" d="
				M160.994,241.626c0,0-2.473-7.121-5.637-5.242c-3.165,1.879,0.297,15.527,5.637,12.462"/>
			<path style="opacity:0.3;fill:none;stroke:#FFFFFF;stroke-linecap:round;stroke-linejoin:round;stroke-miterlimit:10;" d="
				M160.994,218.736c0,0,15.248,2.571,19.781-3.561"/>
			<path style="opacity:0.3;fill:none;stroke:#FFFFFF;stroke-linecap:round;stroke-linejoin:round;stroke-miterlimit:10;" d="
				M170.884,222.297c0,0,10.599,3.56,17.852,0"/>
			<path style="opacity:0.3;fill:none;stroke:#FFFFFF;stroke-linecap:round;stroke-linejoin:round;stroke-miterlimit:10;" d="
				M157.571,223.879c0,0-0.153,8.791-8.263,11.516"/>
		</g>
	</g>
</g>
</svg>
