<?xml version="1.0" encoding="utf-8"?>
<!-- Generator: Adobe Illustrator 27.5.0, SVG Export Plug-In . SVG Version: 6.00 Build 0)  -->
<svg version="1.1" xmlns="http://www.w3.org/2000/svg" xmlns:xlink="http://www.w3.org/1999/xlink" x="0px" y="0px"
	 viewBox="0 0 500 500" style="enable-background:new 0 0 500 500;" xml:space="preserve">
<g id="Background_Simple">
	<g>
		<path style="fill:#C6FF00;" d="M410.796,140.071C380.141,107.236,337.344,85.404,291,84c-66-2-100,50-149,74s-83,45-89,92
			s-1,91,40,113s66-15,119-13c52.999,2,85,62.027,151.498,44.015c43.754-11.852,76.193-55.278,88.39-97.053
			C468.594,239.747,449.244,181.254,410.796,140.071z"/>
		<path style="opacity:0.7;fill:#FFFFFF;" d="M410.796,140.071C380.141,107.236,337.344,85.404,291,84c-66-2-100,50-149,74
			s-83,45-89,92s-1,91,40,113s66-15,119-13c52.999,2,85,62.027,151.498,44.015c43.754-11.852,76.193-55.278,88.39-97.053
			C468.594,239.747,449.244,181.254,410.796,140.071z"/>
	</g>
</g>
<g id="Plants">
	<g>
		<g>
			<path style="fill:#C6FF00;" d="M343.272,334.649c0.004-0.003,4.678-3.693,5.876-6.063c1.02-2.019,1.76-4.874,0.706-7.024
				c-1.031-2.105-3.613-3.115-5.688-1.825c-2.88,1.792-3.189,7.901-2.455,10.839C341.775,330.83,343.224,334.687,343.272,334.649z"
				/>
			<path style="fill:#C6FF00;" d="M300.023,365.426c0.193,0.177,3.529,2.595,3.548,2.536c0.001-0.004,1.864-5.66,1.556-8.298
				c-0.263-2.247-1.221-5.036-3.286-6.249c-2.021-1.187-4.732-0.605-5.75,1.616C294.678,358.114,297.79,363.38,300.023,365.426z"/>
			<path style="fill:#C6FF00;" d="M398.039,340.245c0,0-17.125,17.677-17.032,39.39c0.094,21.714,17.37,39.242,17.37,39.242
				s17.125-17.677,17.031-39.39C415.316,357.774,398.039,340.245,398.039,340.245z"/>
			<path style="fill:#C6FF00;" d="M373.623,392.64c0.243-0.266,0.455-0.528,0.619-0.777c1.246-1.888,2.308-4.64,1.509-6.897
				c-0.782-2.21-3.231-3.509-5.44-2.466c-2.324,1.098-3.465,4.827-3.711,7.876c-0.928-0.213-1.764-0.374-2.482-0.495
				c-0.307-0.69-0.616-1.386-0.929-2.089c-0.339-0.721-0.574-1.448-0.87-2.182c-0.41-1.084-0.779-2.224-1.149-3.359
				c1.355-0.605,5.298-2.45,6.768-4.075c1.517-1.678,2.984-4.236,2.536-6.588c-0.439-2.303-2.662-3.959-5.004-3.262
				c-3.251,0.967-5.162,6.778-5.23,9.806c-0.002,0.098,0.05,0.74,0.119,1.5c-0.328-1.12-0.659-2.237-0.953-3.383
				c-0.836-3.251-1.586-6.589-2.352-9.93c-0.159-0.696-0.329-1.389-0.492-2.085c1.142-0.504,5.433-2.465,6.973-4.167
				c1.517-1.678,2.984-4.237,2.536-6.589c-0.439-2.303-2.662-3.959-5.004-3.262c-3.251,0.967-5.162,6.778-5.23,9.806
				c-0.002,0.108,0.062,0.874,0.141,1.73c-0.442-1.809-0.905-3.608-1.42-5.377c-0.897-3.097-1.949-6.098-3.197-8.925
				c0.405-0.173,5.481-2.371,7.193-4.263c1.517-1.678,2.984-4.237,2.536-6.589c-0.439-2.303-2.662-3.959-5.004-3.262
				c-3.251,0.968-5.162,6.778-5.23,9.806c-0.005,0.215,0.246,2.983,0.37,3.969c-0.015-0.033-0.026-0.07-0.042-0.104
				c-1.338-2.956-2.981-5.612-4.661-8.055c-1.672-2.44-3.455-4.596-5.146-6.536c-1.687-1.946-3.35-3.622-4.834-5.093
				c-0.81-0.79-1.565-1.498-2.277-2.151c0.014-0.001,0.072-0.007,0.072-0.007c0.062-0.006-1.584-3.783-1.715-4.01
				c-1.52-2.62-5.995-6.79-9.309-6.07c-2.388,0.518-3.538,3.041-2.812,5.27c0.741,2.276,3.26,3.811,5.398,4.55
				c2.191,0.757,6.979,0.391,8.165,0.286c0.725,0.693,1.493,1.442,2.323,2.288c1.448,1.5,3.069,3.206,4.707,5.18
				c0.438,0.525,0.887,1.107,1.333,1.664c-0.946-0.782-2.259-1.837-2.398-1.925c-2.555-1.625-8.449-3.264-11.059-1.098
				c-1.881,1.56-1.739,4.329-0.067,5.973c1.707,1.679,4.65,1.88,6.887,1.551c2.335-0.344,6.507-2.951,7.413-3.531
				c0.968,1.248,1.934,2.552,2.862,3.971c1.601,2.439,3.179,5.12,4.429,8.051c0.069,0.163,0.122,0.34,0.19,0.504
				c-0.401-0.467-2.782-2.873-2.968-3.022c-2.361-1.896-8.039-4.172-10.871-2.306c-2.04,1.344-2.204,4.112-0.723,5.929
				c1.512,1.856,4.415,2.38,6.675,2.298c2.605-0.095,7.738-2.685,7.931-2.782c1.136,2.759,2.091,5.678,2.896,8.699
				c0.586,2.188,1.089,4.428,1.573,6.68c-0.535-0.596-2.75-2.831-2.928-2.974c-2.362-1.896-8.039-4.172-10.872-2.305
				c-2.041,1.344-2.204,4.112-0.723,5.929c1.512,1.856,4.415,2.38,6.676,2.298c2.543-0.092,7.472-2.552,7.887-2.76
				c0.219,1.023,0.442,2.043,0.654,3.071c0.692,3.353,1.371,6.717,2.144,10.016c0.267,1.143,0.573,2.259,0.874,3.38
				c-0.83-0.869-2.372-2.42-2.519-2.538c-2.361-1.896-8.039-4.172-10.872-2.306c-2.041,1.345-2.204,4.112-0.723,5.929
				c1.512,1.856,4.415,2.38,6.675,2.298c2.271-0.082,6.46-2.061,7.632-2.635c0.515,1.859,1.067,3.693,1.696,5.472
				c0.288,0.761,0.533,1.557,0.851,2.272c0.161,0.383,0.318,0.759,0.477,1.138c-0.421-0.047-0.654-0.063-0.654-0.063
				s-0.045,1.06,0.056,2.784c-2.493-1.775-6.085-3.305-8.422-2.231c-2.221,1.02-2.801,3.73-1.613,5.751
				c0.151,0.257,0.327,0.496,0.523,0.72c0.369,2.678,1.902,5.654,3.22,7.175c0.127,0.147,1.823,1.71,2.705,2.489
				c-0.853-0.463-1.702-0.92-2.583-1.417c-1.272-0.705-2.594-1.492-3.879-2.246c-0.652-0.416-1.31-0.836-1.975-1.26
				c-0.68-0.414-1.277-0.892-1.93-1.34c-0.94-0.678-1.876-1.425-2.812-2.168c0.796-1.252,3.068-4.967,3.397-7.132
				c0.34-2.236,0.152-5.18-1.519-6.894c-1.637-1.679-4.404-1.833-5.973,0.04c-2.178,2.6-0.566,8.501,1.047,11.064
				c0.052,0.083,0.45,0.589,0.927,1.185c-0.891-0.753-1.784-1.502-2.662-2.296c-2.491-2.25-4.958-4.621-7.44-6.985
				c-0.517-0.493-1.041-0.977-1.56-1.468c0.675-1.05,3.172-5.053,3.517-7.322c0.34-2.237,0.152-5.18-1.519-6.895
				c-1.636-1.679-4.404-1.833-5.973,0.04c-2.177,2.6-0.566,8.501,1.047,11.064c0.058,0.092,0.534,0.695,1.072,1.366
				c-1.367-1.265-2.745-2.51-4.151-3.702c-2.456-2.088-4.99-4.011-7.59-5.68c0.242-0.368,3.264-5.002,3.647-7.524
				c0.34-2.237,0.152-5.18-1.519-6.895c-1.636-1.679-4.404-1.833-5.973,0.04c-2.178,2.601-0.566,8.501,1.048,11.064
				c0.114,0.182,1.852,2.352,2.498,3.107c-0.031-0.02-0.061-0.044-0.092-0.064c-2.747-1.727-5.582-3.036-8.331-4.148
				c-2.741-1.112-5.417-1.927-7.898-2.613c-2.481-0.692-4.792-1.173-6.841-1.581c-1.111-0.212-2.132-0.386-3.086-0.538
				c0.011-0.009,0.056-0.045,0.056-0.045c0.048-0.039-3.409-2.281-3.643-2.398c-2.713-1.347-8.746-2.356-11.113,0.072
				c-1.706,1.749-1.273,4.488,0.562,5.947c1.874,1.49,4.822,1.381,7.012,0.817c2.245-0.578,6.036-3.523,6.968-4.266
				c0.987,0.178,2.041,0.379,3.2,0.626c2.035,0.452,4.329,0.981,6.784,1.724c0.654,0.197,1.351,0.434,2.029,0.653
				c-1.22-0.13-2.898-0.286-3.062-0.283c-3.028,0.054-8.847,1.939-9.829,5.185c-0.708,2.339,0.938,4.57,3.239,5.019
				c2.35,0.458,4.915-0.997,6.6-2.506c1.758-1.575,3.799-6.051,4.235-7.035c1.496,0.506,3.021,1.062,4.578,1.733
				c2.68,1.151,5.476,2.517,8.135,4.272c0.148,0.098,0.289,0.216,0.436,0.316c-0.592-0.168-3.906-0.861-4.143-0.883
				c-3.016-0.279-9.007,0.955-10.339,4.074c-0.96,2.247,0.43,4.645,2.668,5.344c2.285,0.714,4.995-0.45,6.835-1.766
				c2.121-1.516,4.973-6.508,5.08-6.696c2.469,1.675,4.877,3.583,7.214,5.658c1.696,1.502,3.351,3.092,4.998,4.704
				c-0.775-0.202-3.856-0.844-4.083-0.865c-3.016-0.279-9.007,0.956-10.339,4.074c-0.96,2.247,0.43,4.645,2.668,5.344
				c2.285,0.714,4.995-0.45,6.835-1.766c2.07-1.48,4.825-6.251,5.055-6.653c0.747,0.732,1.497,1.46,2.24,2.201
				c2.427,2.414,4.849,4.846,7.314,7.171c0.853,0.806,1.724,1.569,2.593,2.337c-1.172-0.266-3.313-0.71-3.501-0.727
				c-3.016-0.279-9.007,0.956-10.34,4.074c-0.96,2.247,0.43,4.645,2.668,5.344c2.285,0.714,4.995-0.451,6.835-1.766
				c1.849-1.322,4.251-5.283,4.912-6.408c1.455,1.267,2.927,2.492,4.433,3.628c0.66,0.476,1.303,1.005,1.963,1.425
				c0.655,0.439,1.305,0.873,1.948,1.302c1.361,0.842,2.623,1.63,3.909,2.381c0.648,0.384,1.268,0.732,1.902,1.097
				c-1.147-0.447-2.975-1.126-3.149-1.17c-2.939-0.733-9.048-0.42-10.837,2.461c-1.29,2.076-0.279,4.657,1.827,5.687
				c2.151,1.052,5.006,0.311,7.024-0.71c2.225-1.127,5.573-5.27,5.98-5.78c1.556,0.886,3.08,1.735,4.52,2.502
				c3.842,2.058,7.198,3.698,9.801,4.921c8.456,7.312,20.36,8.117,20.36,8.117s0.629-14.256-7.765-23.64
				C381.058,396.473,377.247,394.183,373.623,392.64z M358.52,406.542c0.266-0.583,2.292-5.113,2.432-7.668
				c0.471-0.086,0.943-0.185,1.402-0.292c0.811,3.921,2.351,8.523,5.251,12.553c-1.538-0.73-3.201-1.542-4.97-2.44
				C361.319,408.031,359.935,407.303,358.52,406.542z"/>
			<path style="fill:#C6FF00;" d="M436,389.914c0,0-14.263,0.437-22.994,9.508c-8.731,9.071-8.623,23.341-8.623,23.341
				s14.264-0.437,22.995-9.508C436.108,404.184,436,389.914,436,389.914z"/>
		</g>
		<g style="opacity:0.5;">
			<path style="fill:#FFFFFF;" d="M343.272,334.649c0.004-0.003,4.678-3.693,5.876-6.063c1.02-2.019,1.76-4.874,0.706-7.024
				c-1.031-2.105-3.613-3.115-5.688-1.825c-2.88,1.792-3.189,7.901-2.455,10.839C341.775,330.83,343.224,334.687,343.272,334.649z"
				/>
			<path style="fill:#FFFFFF;" d="M300.023,365.426c0.193,0.177,3.529,2.595,3.548,2.536c0.001-0.004,1.864-5.66,1.556-8.298
				c-0.263-2.247-1.221-5.036-3.286-6.249c-2.021-1.187-4.732-0.605-5.75,1.616C294.678,358.114,297.79,363.38,300.023,365.426z"/>
			<path style="fill:#FFFFFF;" d="M398.039,340.245c0,0-17.125,17.677-17.032,39.39c0.094,21.714,17.37,39.242,17.37,39.242
				s17.125-17.677,17.031-39.39C415.316,357.774,398.039,340.245,398.039,340.245z"/>
			<path style="fill:#FFFFFF;" d="M373.623,392.64c0.243-0.266,0.455-0.528,0.619-0.777c1.246-1.888,2.308-4.64,1.509-6.897
				c-0.782-2.21-3.231-3.509-5.44-2.466c-2.324,1.098-3.465,4.827-3.711,7.876c-0.928-0.213-1.764-0.374-2.482-0.495
				c-0.307-0.69-0.616-1.386-0.929-2.089c-0.339-0.721-0.574-1.448-0.87-2.182c-0.41-1.084-0.779-2.224-1.149-3.359
				c1.355-0.605,5.298-2.45,6.768-4.075c1.517-1.678,2.984-4.236,2.536-6.588c-0.439-2.303-2.662-3.959-5.004-3.262
				c-3.251,0.967-5.162,6.778-5.23,9.806c-0.002,0.098,0.05,0.74,0.119,1.5c-0.328-1.12-0.659-2.237-0.953-3.383
				c-0.836-3.251-1.586-6.589-2.352-9.93c-0.159-0.696-0.329-1.389-0.492-2.085c1.142-0.504,5.433-2.465,6.973-4.167
				c1.517-1.678,2.984-4.237,2.536-6.589c-0.439-2.303-2.662-3.959-5.004-3.262c-3.251,0.967-5.162,6.778-5.23,9.806
				c-0.002,0.108,0.062,0.874,0.141,1.73c-0.442-1.809-0.905-3.608-1.42-5.377c-0.897-3.097-1.949-6.098-3.197-8.925
				c0.405-0.173,5.481-2.371,7.193-4.263c1.517-1.678,2.984-4.237,2.536-6.589c-0.439-2.303-2.662-3.959-5.004-3.262
				c-3.251,0.968-5.162,6.778-5.23,9.806c-0.005,0.215,0.246,2.983,0.37,3.969c-0.015-0.033-0.026-0.07-0.042-0.104
				c-1.338-2.956-2.981-5.612-4.661-8.055c-1.672-2.44-3.455-4.596-5.146-6.536c-1.687-1.946-3.35-3.622-4.834-5.093
				c-0.81-0.79-1.565-1.498-2.277-2.151c0.014-0.001,0.072-0.007,0.072-0.007c0.062-0.006-1.584-3.783-1.715-4.01
				c-1.52-2.62-5.995-6.79-9.309-6.07c-2.388,0.518-3.538,3.041-2.812,5.27c0.741,2.276,3.26,3.811,5.398,4.55
				c2.191,0.757,6.979,0.391,8.165,0.286c0.725,0.693,1.493,1.442,2.323,2.288c1.448,1.5,3.069,3.206,4.707,5.18
				c0.438,0.525,0.887,1.107,1.333,1.664c-0.946-0.782-2.259-1.837-2.398-1.925c-2.555-1.625-8.449-3.264-11.059-1.098
				c-1.881,1.56-1.739,4.329-0.067,5.973c1.707,1.679,4.65,1.88,6.887,1.551c2.335-0.344,6.507-2.951,7.413-3.531
				c0.968,1.248,1.934,2.552,2.862,3.971c1.601,2.439,3.179,5.12,4.429,8.051c0.069,0.163,0.122,0.34,0.19,0.504
				c-0.401-0.467-2.782-2.873-2.968-3.022c-2.361-1.896-8.039-4.172-10.871-2.306c-2.04,1.344-2.204,4.112-0.723,5.929
				c1.512,1.856,4.415,2.38,6.675,2.298c2.605-0.095,7.738-2.685,7.931-2.782c1.136,2.759,2.091,5.678,2.896,8.699
				c0.586,2.188,1.089,4.428,1.573,6.68c-0.535-0.596-2.75-2.831-2.928-2.974c-2.362-1.896-8.039-4.172-10.872-2.305
				c-2.041,1.344-2.204,4.112-0.723,5.929c1.512,1.856,4.415,2.38,6.676,2.298c2.543-0.092,7.472-2.552,7.887-2.76
				c0.219,1.023,0.442,2.043,0.654,3.071c0.692,3.353,1.371,6.717,2.144,10.016c0.267,1.143,0.573,2.259,0.874,3.38
				c-0.83-0.869-2.372-2.42-2.519-2.538c-2.361-1.896-8.039-4.172-10.872-2.306c-2.041,1.345-2.204,4.112-0.723,5.929
				c1.512,1.856,4.415,2.38,6.675,2.298c2.271-0.082,6.46-2.061,7.632-2.635c0.515,1.859,1.067,3.693,1.696,5.472
				c0.288,0.761,0.533,1.557,0.851,2.272c0.161,0.383,0.318,0.759,0.477,1.138c-0.421-0.047-0.654-0.063-0.654-0.063
				s-0.045,1.06,0.056,2.784c-2.493-1.775-6.085-3.305-8.422-2.231c-2.221,1.02-2.801,3.73-1.613,5.751
				c0.151,0.257,0.327,0.496,0.523,0.72c0.369,2.678,1.902,5.654,3.22,7.175c0.127,0.147,1.823,1.71,2.705,2.489
				c-0.853-0.463-1.702-0.92-2.583-1.417c-1.272-0.705-2.594-1.492-3.879-2.246c-0.652-0.416-1.31-0.836-1.975-1.26
				c-0.68-0.414-1.277-0.892-1.93-1.34c-0.94-0.678-1.876-1.425-2.812-2.168c0.796-1.252,3.068-4.967,3.397-7.132
				c0.34-2.236,0.152-5.18-1.519-6.894c-1.637-1.679-4.404-1.833-5.973,0.04c-2.178,2.6-0.566,8.501,1.047,11.064
				c0.052,0.083,0.45,0.589,0.927,1.185c-0.891-0.753-1.784-1.502-2.662-2.296c-2.491-2.25-4.958-4.621-7.44-6.985
				c-0.517-0.493-1.041-0.977-1.56-1.468c0.675-1.05,3.172-5.053,3.517-7.322c0.34-2.237,0.152-5.18-1.519-6.895
				c-1.636-1.679-4.404-1.833-5.973,0.04c-2.177,2.6-0.566,8.501,1.047,11.064c0.058,0.092,0.534,0.695,1.072,1.366
				c-1.367-1.265-2.745-2.51-4.151-3.702c-2.456-2.088-4.99-4.011-7.59-5.68c0.242-0.368,3.264-5.002,3.647-7.524
				c0.34-2.237,0.152-5.18-1.519-6.895c-1.636-1.679-4.404-1.833-5.973,0.04c-2.178,2.601-0.566,8.501,1.048,11.064
				c0.114,0.182,1.852,2.352,2.498,3.107c-0.031-0.02-0.061-0.044-0.092-0.064c-2.747-1.727-5.582-3.036-8.331-4.148
				c-2.741-1.112-5.417-1.927-7.898-2.613c-2.481-0.692-4.792-1.173-6.841-1.581c-1.111-0.212-2.132-0.386-3.086-0.538
				c0.011-0.009,0.056-0.045,0.056-0.045c0.048-0.039-3.409-2.281-3.643-2.398c-2.713-1.347-8.746-2.356-11.113,0.072
				c-1.706,1.749-1.273,4.488,0.562,5.947c1.874,1.49,4.822,1.381,7.012,0.817c2.245-0.578,6.036-3.523,6.968-4.266
				c0.987,0.178,2.041,0.379,3.2,0.626c2.035,0.452,4.329,0.981,6.784,1.724c0.654,0.197,1.351,0.434,2.029,0.653
				c-1.22-0.13-2.898-0.286-3.062-0.283c-3.028,0.054-8.847,1.939-9.829,5.185c-0.708,2.339,0.938,4.57,3.239,5.019
				c2.35,0.458,4.915-0.997,6.6-2.506c1.758-1.575,3.799-6.051,4.235-7.035c1.496,0.506,3.021,1.062,4.578,1.733
				c2.68,1.151,5.476,2.517,8.135,4.272c0.148,0.098,0.289,0.216,0.436,0.316c-0.592-0.168-3.906-0.861-4.143-0.883
				c-3.016-0.279-9.007,0.955-10.339,4.074c-0.96,2.247,0.43,4.645,2.668,5.344c2.285,0.714,4.995-0.45,6.835-1.766
				c2.121-1.516,4.973-6.508,5.08-6.696c2.469,1.675,4.877,3.583,7.214,5.658c1.696,1.502,3.351,3.092,4.998,4.704
				c-0.775-0.202-3.856-0.844-4.083-0.865c-3.016-0.279-9.007,0.956-10.339,4.074c-0.96,2.247,0.43,4.645,2.668,5.344
				c2.285,0.714,4.995-0.45,6.835-1.766c2.07-1.48,4.825-6.251,5.055-6.653c0.747,0.732,1.497,1.46,2.24,2.201
				c2.427,2.414,4.849,4.846,7.314,7.171c0.853,0.806,1.724,1.569,2.593,2.337c-1.172-0.266-3.313-0.71-3.501-0.727
				c-3.016-0.279-9.007,0.956-10.34,4.074c-0.96,2.247,0.43,4.645,2.668,5.344c2.285,0.714,4.995-0.451,6.835-1.766
				c1.849-1.322,4.251-5.283,4.912-6.408c1.455,1.267,2.927,2.492,4.433,3.628c0.66,0.476,1.303,1.005,1.963,1.425
				c0.655,0.439,1.305,0.873,1.948,1.302c1.361,0.842,2.623,1.63,3.909,2.381c0.648,0.384,1.268,0.732,1.902,1.097
				c-1.147-0.447-2.975-1.126-3.149-1.17c-2.939-0.733-9.048-0.42-10.837,2.461c-1.29,2.076-0.279,4.657,1.827,5.687
				c2.151,1.052,5.006,0.311,7.024-0.71c2.225-1.127,5.573-5.27,5.98-5.78c1.556,0.886,3.08,1.735,4.52,2.502
				c3.842,2.058,7.198,3.698,9.801,4.921c8.456,7.312,20.36,8.117,20.36,8.117s0.629-14.256-7.765-23.64
				C381.058,396.473,377.247,394.183,373.623,392.64z M358.52,406.542c0.266-0.583,2.292-5.113,2.432-7.668
				c0.471-0.086,0.943-0.185,1.402-0.292c0.811,3.921,2.351,8.523,5.251,12.553c-1.538-0.73-3.201-1.542-4.97-2.44
				C361.319,408.031,359.935,407.303,358.52,406.542z"/>
			<path style="fill:#FFFFFF;" d="M436,389.914c0,0-14.263,0.437-22.994,9.508c-8.731,9.071-8.623,23.341-8.623,23.341
				s14.264-0.437,22.995-9.508C436.108,404.184,436,389.914,436,389.914z"/>
		</g>
		<g>
			<polygon style="fill:#FFFFFF;" points="398.745,399.102 412.755,386.506 412.153,385.838 398.737,397.9 398.666,381.392 
				398.739,381.442 410.589,364.116 409.847,363.608 398.659,379.966 398.488,340.243 397.59,340.247 397.706,367.208 
				388.787,359.489 388.199,360.169 397.711,368.401 397.794,387.679 384.274,375.717 383.679,376.389 397.799,388.882 
				397.875,406.435 387.715,398.462 387.16,399.169 397.88,407.581 397.929,418.88 398.827,418.876 398.742,399.098 			"/>
			<polygon style="fill:#FFFFFF;" points="385.838,403.964 384.945,403.862 383.813,413.838 377.799,407.115 377.81,407.113 
				376.284,395.039 375.394,395.152 376.758,405.951 361.805,389.235 361.135,389.835 371.28,401.176 364.857,401.254 
				364.869,402.152 372.075,402.065 379.189,410.018 369.145,410.029 369.146,410.928 379.992,410.915 386.461,418.147 
				379.376,418.573 379.431,419.47 387.225,419 391.533,423.816 392.203,423.217 384.616,414.735 			"/>
			<polygon style="fill:#FFFFFF;" points="419.69,407.521 431.617,405.099 431.438,404.218 420.77,406.384 436.323,390.226 
				435.677,389.603 425.123,400.567 424.566,394.166 423.672,394.244 424.297,401.425 416.897,409.113 416.136,399.097 
				415.239,399.165 416.062,409.981 409.334,416.971 408.38,409.938 407.489,410.059 408.539,417.797 404.059,422.451 
				404.705,423.074 412.596,414.876 423.43,415.291 423.465,414.393 413.431,414.008 419.688,407.508 			"/>
		</g>
	</g>
</g>
<g id="Windows">
	<g>
		<g>
			<polygon style="fill:#C6FF00;stroke:#263238;stroke-miterlimit:10;" points="151.848,133.661 147.756,121.924 81.469,121.924 
				81.469,133.661 81.469,142.897 81.469,292.93 301.236,292.93 301.236,133.661 			"/>
			<rect x="85.58" y="149.23" style="fill:#FFFFFF;stroke:#263238;stroke-miterlimit:10;" width="211.543" height="133.953"/>
			<rect x="151.818" y="138.096" style="fill:#FFFFFF;stroke:#263238;stroke-miterlimit:10;" width="105.099" height="6.435"/>
			<g>
				<polyline style="fill:none;stroke:#263238;stroke-linecap:round;stroke-linejoin:round;stroke-miterlimit:10;" points="
					90.667,137.068 87.635,139.988 90.78,143.357 				"/>
				
					<line style="fill:none;stroke:#263238;stroke-linecap:round;stroke-linejoin:round;stroke-miterlimit:10;" x1="87.635" y1="139.988" x2="94.374" y2="139.988"/>
			</g>
			<g>
				<polyline style="fill:none;stroke:#263238;stroke-linecap:round;stroke-linejoin:round;stroke-miterlimit:10;" points="
					107.852,137.068 110.884,139.988 107.739,143.357 				"/>
				
					<line style="fill:none;stroke:#263238;stroke-linecap:round;stroke-linejoin:round;stroke-miterlimit:10;" x1="110.884" y1="139.988" x2="104.145" y2="139.988"/>
			</g>
			<g>
				<path style="fill:none;stroke:#263238;stroke-linecap:round;stroke-linejoin:round;stroke-miterlimit:10;" d="M125.362,139.595
					c-0.329-1.319-1.666-2.415-3.087-2.415c-1.675,0-3.033,1.358-3.033,3.033s1.358,3.033,3.033,3.033
					c0.729,0,1.397-0.257,1.92-0.685"/>
				<polyline style="fill:none;stroke:#263238;stroke-linecap:round;stroke-linejoin:round;stroke-miterlimit:10;" points="
					123.32,139.935 125.679,139.935 125.679,137.13 				"/>
			</g>
			<g>
				<polygon style="fill:none;stroke:#263238;stroke-linecap:round;stroke-linejoin:round;stroke-miterlimit:10;" points="
					141.426,138.941 138.629,136.677 135.965,138.941 135.965,143.869 141.426,143.869 				"/>
				<rect x="137.563" y="140.273" style="fill:#263238;" width="2.131" height="3.419"/>
				
					<line style="fill:none;stroke:#263238;stroke-linecap:round;stroke-linejoin:round;stroke-miterlimit:10;" x1="135.965" y1="138.941" x2="134.367" y2="140.406"/>
				
					<line style="fill:none;stroke:#263238;stroke-linecap:round;stroke-linejoin:round;stroke-miterlimit:10;" x1="141.426" y1="138.941" x2="142.93" y2="140.277"/>
			</g>
			<g>
				
					<line style="fill:none;stroke:#263238;stroke-linecap:round;stroke-linejoin:round;stroke-miterlimit:10;" x1="140.418" y1="128" x2="144.677" y2="132.393"/>
				
					<line style="fill:none;stroke:#263238;stroke-linecap:round;stroke-linejoin:round;stroke-miterlimit:10;" x1="144.744" y1="128.067" x2="140.351" y2="132.326"/>
			</g>
			<g>
				
					<line style="fill:none;stroke:#263238;stroke-linecap:round;stroke-linejoin:round;stroke-miterlimit:10;" x1="285.981" y1="139.275" x2="294.41" y2="139.275"/>
				
					<line style="fill:none;stroke:#263238;stroke-linecap:round;stroke-linejoin:round;stroke-miterlimit:10;" x1="285.981" y1="141.176" x2="294.41" y2="141.176"/>
				
					<line style="fill:none;stroke:#263238;stroke-linecap:round;stroke-linejoin:round;stroke-miterlimit:10;" x1="285.981" y1="143.076" x2="294.41" y2="143.076"/>
				
					<line style="fill:none;stroke:#263238;stroke-linecap:round;stroke-linejoin:round;stroke-miterlimit:10;" x1="285.981" y1="144.977" x2="294.41" y2="144.977"/>
			</g>
		</g>
		<g>
			<polygon style="fill:#C6FF00;stroke:#263238;stroke-miterlimit:10;" points="246.493,100.052 242.401,88.315 176.114,88.315 
				176.114,100.052 176.114,109.288 176.114,259.321 395.88,259.321 395.88,100.052 			"/>
			<rect x="180.225" y="115.621" style="fill:#FFFFFF;stroke:#263238;stroke-miterlimit:10;" width="211.543" height="133.953"/>
			<rect x="246.463" y="104.487" style="fill:#FFFFFF;stroke:#263238;stroke-miterlimit:10;" width="105.099" height="6.435"/>
			<g>
				<polyline style="fill:none;stroke:#263238;stroke-linecap:round;stroke-linejoin:round;stroke-miterlimit:10;" points="
					185.312,103.459 182.28,106.379 185.425,109.749 				"/>
				
					<line style="fill:none;stroke:#263238;stroke-linecap:round;stroke-linejoin:round;stroke-miterlimit:10;" x1="182.28" y1="106.379" x2="189.019" y2="106.379"/>
			</g>
			<g>
				<polyline style="fill:none;stroke:#263238;stroke-linecap:round;stroke-linejoin:round;stroke-miterlimit:10;" points="
					202.496,103.459 205.529,106.379 202.384,109.749 				"/>
				
					<line style="fill:none;stroke:#263238;stroke-linecap:round;stroke-linejoin:round;stroke-miterlimit:10;" x1="205.529" y1="106.379" x2="198.79" y2="106.379"/>
			</g>
			<g>
				<path style="fill:none;stroke:#263238;stroke-linecap:round;stroke-linejoin:round;stroke-miterlimit:10;" d="M220.007,105.986
					c-0.329-1.319-1.666-2.415-3.087-2.415c-1.675,0-3.033,1.358-3.033,3.032c0,1.675,1.358,3.033,3.033,3.033
					c0.729,0,1.397-0.257,1.92-0.685"/>
				<polyline style="fill:none;stroke:#263238;stroke-linecap:round;stroke-linejoin:round;stroke-miterlimit:10;" points="
					217.965,106.327 220.324,106.327 220.324,103.522 				"/>
			</g>
			<g>
				<polygon style="fill:none;stroke:#263238;stroke-linecap:round;stroke-linejoin:round;stroke-miterlimit:10;" points="
					236.071,105.332 233.274,103.068 230.61,105.332 230.61,110.26 236.071,110.26 				"/>
				<rect x="232.208" y="106.664" style="fill:#263238;" width="2.131" height="3.419"/>
				
					<line style="fill:none;stroke:#263238;stroke-linecap:round;stroke-linejoin:round;stroke-miterlimit:10;" x1="230.61" y1="105.332" x2="229.012" y2="106.797"/>
				
					<line style="fill:none;stroke:#263238;stroke-linecap:round;stroke-linejoin:round;stroke-miterlimit:10;" x1="236.071" y1="105.332" x2="237.575" y2="106.668"/>
			</g>
			<g>
				
					<line style="fill:none;stroke:#263238;stroke-linecap:round;stroke-linejoin:round;stroke-miterlimit:10;" x1="235.063" y1="94.391" x2="239.322" y2="98.784"/>
				
					<line style="fill:none;stroke:#263238;stroke-linecap:round;stroke-linejoin:round;stroke-miterlimit:10;" x1="239.389" y1="94.458" x2="234.996" y2="98.717"/>
			</g>
			<g>
				
					<line style="fill:none;stroke:#263238;stroke-linecap:round;stroke-linejoin:round;stroke-miterlimit:10;" x1="380.626" y1="105.666" x2="389.055" y2="105.666"/>
				
					<line style="fill:none;stroke:#263238;stroke-linecap:round;stroke-linejoin:round;stroke-miterlimit:10;" x1="380.626" y1="107.567" x2="389.055" y2="107.567"/>
				
					<line style="fill:none;stroke:#263238;stroke-linecap:round;stroke-linejoin:round;stroke-miterlimit:10;" x1="380.626" y1="109.467" x2="389.055" y2="109.467"/>
				
					<line style="fill:none;stroke:#263238;stroke-linecap:round;stroke-linejoin:round;stroke-miterlimit:10;" x1="380.626" y1="111.368" x2="389.055" y2="111.368"/>
			</g>
		</g>
		<g>
			<g>
				<polygon style="fill:#C6FF00;stroke:#263238;stroke-miterlimit:10;" points="297.785,148.388 293.692,136.651 227.405,136.651 
					227.405,148.388 227.405,157.624 227.405,307.657 447.172,307.657 447.172,148.388 				"/>
				<rect x="231.517" y="163.957" style="fill:#FFFFFF;stroke:#263238;stroke-miterlimit:10;" width="211.544" height="133.953"/>
				<rect x="297.755" y="152.823" style="fill:#FFFFFF;stroke:#263238;stroke-miterlimit:10;" width="105.099" height="6.435"/>
				<g>
					<polyline style="fill:none;stroke:#263238;stroke-linecap:round;stroke-linejoin:round;stroke-miterlimit:10;" points="
						236.604,151.795 233.571,154.715 236.716,158.085 					"/>
					
						<line style="fill:none;stroke:#263238;stroke-linecap:round;stroke-linejoin:round;stroke-miterlimit:10;" x1="233.571" y1="154.715" x2="240.31" y2="154.715"/>
				</g>
				<g>
					<polyline style="fill:none;stroke:#263238;stroke-linecap:round;stroke-linejoin:round;stroke-miterlimit:10;" points="
						253.788,151.795 256.821,154.715 253.676,158.085 					"/>
					
						<line style="fill:none;stroke:#263238;stroke-linecap:round;stroke-linejoin:round;stroke-miterlimit:10;" x1="256.821" y1="154.715" x2="250.082" y2="154.715"/>
				</g>
				<g>
					<path style="fill:none;stroke:#263238;stroke-linecap:round;stroke-linejoin:round;stroke-miterlimit:10;" d="M271.298,154.322
						c-0.329-1.319-1.666-2.415-3.087-2.415c-1.675,0-3.033,1.358-3.033,3.033s1.358,3.033,3.033,3.033
						c0.729,0,1.397-0.257,1.92-0.685"/>
					<polyline style="fill:none;stroke:#263238;stroke-linecap:round;stroke-linejoin:round;stroke-miterlimit:10;" points="
						269.257,154.663 271.615,154.663 271.615,151.858 					"/>
				</g>
				<g>
					<polygon style="fill:none;stroke:#263238;stroke-linecap:round;stroke-linejoin:round;stroke-miterlimit:10;" points="
						287.362,153.668 284.565,151.404 281.902,153.668 281.902,158.596 287.362,158.596 					"/>
					<rect x="283.5" y="155" style="fill:#263238;" width="2.131" height="3.419"/>
					
						<line style="fill:none;stroke:#263238;stroke-linecap:round;stroke-linejoin:round;stroke-miterlimit:10;" x1="281.902" y1="153.668" x2="280.303" y2="155.133"/>
					
						<line style="fill:none;stroke:#263238;stroke-linecap:round;stroke-linejoin:round;stroke-miterlimit:10;" x1="287.362" y1="153.668" x2="288.866" y2="155.004"/>
				</g>
				<g>
					
						<line style="fill:none;stroke:#263238;stroke-linecap:round;stroke-linejoin:round;stroke-miterlimit:10;" x1="286.354" y1="142.727" x2="290.614" y2="147.12"/>
					
						<line style="fill:none;stroke:#263238;stroke-linecap:round;stroke-linejoin:round;stroke-miterlimit:10;" x1="290.68" y1="142.794" x2="286.288" y2="147.053"/>
				</g>
				<g>
					
						<line style="fill:none;stroke:#263238;stroke-linecap:round;stroke-linejoin:round;stroke-miterlimit:10;" x1="431.917" y1="154.002" x2="440.347" y2="154.002"/>
					
						<line style="fill:none;stroke:#263238;stroke-linecap:round;stroke-linejoin:round;stroke-miterlimit:10;" x1="431.917" y1="155.903" x2="440.347" y2="155.903"/>
					
						<line style="fill:none;stroke:#263238;stroke-linecap:round;stroke-linejoin:round;stroke-miterlimit:10;" x1="431.917" y1="157.803" x2="440.347" y2="157.803"/>
					
						<line style="fill:none;stroke:#263238;stroke-linecap:round;stroke-linejoin:round;stroke-miterlimit:10;" x1="431.917" y1="159.704" x2="440.347" y2="159.704"/>
				</g>
			</g>
			<g>
				<g id="XMLID_95_">
					<g id="XMLID_72_">
						
							<line id="XMLID_73_" style="fill:none;stroke:#263238;stroke-linecap:round;stroke-linejoin:round;stroke-miterlimit:10;" x1="263.803" y1="231.994" x2="307.881" y2="231.994"/>
						
							<line id="XMLID_74_" style="fill:none;stroke:#263238;stroke-linecap:round;stroke-linejoin:round;stroke-miterlimit:10;" x1="263.803" y1="237.687" x2="307.881" y2="237.687"/>
						
							<line id="XMLID_75_" style="fill:none;stroke:#263238;stroke-linecap:round;stroke-linejoin:round;stroke-miterlimit:10;" x1="263.803" y1="243.379" x2="307.881" y2="243.379"/>
						
							<line id="XMLID_76_" style="fill:none;stroke:#263238;stroke-linecap:round;stroke-linejoin:round;stroke-miterlimit:10;" x1="263.803" y1="249.072" x2="307.881" y2="249.072"/>
						
							<line id="XMLID_77_" style="fill:none;stroke:#263238;stroke-linecap:round;stroke-linejoin:round;stroke-miterlimit:10;" x1="263.803" y1="254.764" x2="307.881" y2="254.764"/>
						
							<line id="XMLID_78_" style="fill:none;stroke:#263238;stroke-linecap:round;stroke-linejoin:round;stroke-miterlimit:10;" x1="263.803" y1="260.457" x2="307.881" y2="260.457"/>
						
							<line id="XMLID_79_" style="fill:none;stroke:#263238;stroke-linecap:round;stroke-linejoin:round;stroke-miterlimit:10;" x1="263.803" y1="266.149" x2="307.881" y2="266.149"/>
						
							<line id="XMLID_80_" style="fill:none;stroke:#263238;stroke-linecap:round;stroke-linejoin:round;stroke-miterlimit:10;" x1="263.803" y1="271.842" x2="307.881" y2="271.842"/>
						
							<line id="XMLID_81_" style="fill:none;stroke:#263238;stroke-linecap:round;stroke-linejoin:round;stroke-miterlimit:10;" x1="263.803" y1="277.534" x2="307.881" y2="277.534"/>
					</g>
					<g id="XMLID_83_">
						
							<line id="XMLID_92_" style="fill:none;stroke:#263238;stroke-linecap:round;stroke-linejoin:round;stroke-miterlimit:10;" x1="315.635" y1="231.994" x2="359.712" y2="231.994"/>
						
							<line id="XMLID_91_" style="fill:none;stroke:#263238;stroke-linecap:round;stroke-linejoin:round;stroke-miterlimit:10;" x1="315.635" y1="237.687" x2="359.712" y2="237.687"/>
						
							<line id="XMLID_90_" style="fill:none;stroke:#263238;stroke-linecap:round;stroke-linejoin:round;stroke-miterlimit:10;" x1="315.635" y1="243.379" x2="359.712" y2="243.379"/>
						
							<line id="XMLID_89_" style="fill:none;stroke:#263238;stroke-linecap:round;stroke-linejoin:round;stroke-miterlimit:10;" x1="315.635" y1="249.072" x2="359.712" y2="249.072"/>
						
							<line id="XMLID_88_" style="fill:none;stroke:#263238;stroke-linecap:round;stroke-linejoin:round;stroke-miterlimit:10;" x1="315.635" y1="254.764" x2="359.712" y2="254.764"/>
						
							<line id="XMLID_87_" style="fill:none;stroke:#263238;stroke-linecap:round;stroke-linejoin:round;stroke-miterlimit:10;" x1="315.635" y1="260.457" x2="359.712" y2="260.457"/>
						
							<line id="XMLID_86_" style="fill:none;stroke:#263238;stroke-linecap:round;stroke-linejoin:round;stroke-miterlimit:10;" x1="315.635" y1="266.149" x2="359.712" y2="266.149"/>
						
							<line id="XMLID_85_" style="fill:none;stroke:#263238;stroke-linecap:round;stroke-linejoin:round;stroke-miterlimit:10;" x1="315.635" y1="271.842" x2="359.712" y2="271.842"/>
						
							<line id="XMLID_84_" style="fill:none;stroke:#263238;stroke-linecap:round;stroke-linejoin:round;stroke-miterlimit:10;" x1="315.635" y1="277.534" x2="359.712" y2="277.534"/>
					</g>
					<g id="XMLID_2_">
						
							<line id="XMLID_10_" style="fill:none;stroke:#263238;stroke-linecap:round;stroke-linejoin:round;stroke-miterlimit:10;" x1="315.635" y1="186.906" x2="359.712" y2="186.906"/>
						
							<line id="XMLID_9_" style="fill:none;stroke:#263238;stroke-linecap:round;stroke-linejoin:round;stroke-miterlimit:10;" x1="315.635" y1="192.599" x2="359.712" y2="192.599"/>
						
							<line id="XMLID_8_" style="fill:none;stroke:#263238;stroke-linecap:round;stroke-linejoin:round;stroke-miterlimit:10;" x1="315.635" y1="198.291" x2="359.712" y2="198.291"/>
						
							<line id="XMLID_7_" style="fill:none;stroke:#263238;stroke-linecap:round;stroke-linejoin:round;stroke-miterlimit:10;" x1="315.635" y1="203.984" x2="359.712" y2="203.984"/>
						
							<line id="XMLID_6_" style="fill:none;stroke:#263238;stroke-linecap:round;stroke-linejoin:round;stroke-miterlimit:10;" x1="315.635" y1="209.676" x2="359.712" y2="209.676"/>
						
							<line id="XMLID_5_" style="fill:none;stroke:#263238;stroke-linecap:round;stroke-linejoin:round;stroke-miterlimit:10;" x1="315.635" y1="215.368" x2="359.712" y2="215.368"/>
						
							<line id="XMLID_4_" style="fill:none;stroke:#263238;stroke-linecap:round;stroke-linejoin:round;stroke-miterlimit:10;" x1="315.635" y1="221.061" x2="359.712" y2="221.061"/>
						
							<line id="XMLID_3_" style="fill:none;stroke:#263238;stroke-linecap:round;stroke-linejoin:round;stroke-miterlimit:10;" x1="315.635" y1="226.753" x2="359.712" y2="226.753"/>
					</g>
				</g>
				<g id="XMLID_1_">
					<g id="XMLID_12_">
						
							<line id="XMLID_21_" style="fill:none;stroke:#263238;stroke-linecap:round;stroke-linejoin:round;stroke-miterlimit:10;" x1="367.263" y1="231.994" x2="411.341" y2="231.994"/>
						
							<line id="XMLID_20_" style="fill:none;stroke:#263238;stroke-linecap:round;stroke-linejoin:round;stroke-miterlimit:10;" x1="367.263" y1="237.687" x2="411.341" y2="237.687"/>
						
							<line id="XMLID_19_" style="fill:none;stroke:#263238;stroke-linecap:round;stroke-linejoin:round;stroke-miterlimit:10;" x1="367.263" y1="243.379" x2="411.341" y2="243.379"/>
						
							<line id="XMLID_18_" style="fill:none;stroke:#263238;stroke-linecap:round;stroke-linejoin:round;stroke-miterlimit:10;" x1="367.263" y1="249.072" x2="411.341" y2="249.072"/>
						
							<line id="XMLID_17_" style="fill:none;stroke:#263238;stroke-linecap:round;stroke-linejoin:round;stroke-miterlimit:10;" x1="367.263" y1="254.764" x2="411.341" y2="254.764"/>
						
							<line id="XMLID_16_" style="fill:none;stroke:#263238;stroke-linecap:round;stroke-linejoin:round;stroke-miterlimit:10;" x1="367.263" y1="260.457" x2="411.341" y2="260.457"/>
						
							<line id="XMLID_15_" style="fill:none;stroke:#263238;stroke-linecap:round;stroke-linejoin:round;stroke-miterlimit:10;" x1="367.263" y1="266.149" x2="411.341" y2="266.149"/>
						
							<line id="XMLID_14_" style="fill:none;stroke:#263238;stroke-linecap:round;stroke-linejoin:round;stroke-miterlimit:10;" x1="367.263" y1="271.842" x2="411.341" y2="271.842"/>
						
							<line id="XMLID_13_" style="fill:none;stroke:#263238;stroke-linecap:round;stroke-linejoin:round;stroke-miterlimit:10;" x1="367.263" y1="277.534" x2="411.341" y2="277.534"/>
					</g>
				</g>
				<g>
					<path style="fill:#C6FF00;" d="M293.279,195.971c0.229-0.646,0.343-1.483,0.343-2.091c0-2.585-2.624-2.738-5.21-2.738h-0.646
						v-0.608h11.256v0.608c-2.929,0-3.955,1.863-4.905,4.639l-5.971,17.91c-0.456,1.331-0.836,2.32-2.243,2.32h-0.114l-5.285-17.111
						l-4.943,14.792c-0.456,1.331-0.836,2.32-2.243,2.32h-0.114l-7.681-24.869h-2.7v-0.608h9.887v0.608h-2.814l5.704,19.621h0.228
						l4.297-13.081l-2.016-6.54h-2.7v-0.608h9.887v0.608h-2.813l5.703,19.621h0.228L293.279,195.971z"/>
				</g>
				<g id="XMLID_94_">
					
						<rect id="XMLID_64_" x="366.396" y="184.862" style="fill:#C6FF00;stroke:#263238;stroke-linecap:round;stroke-linejoin:round;stroke-miterlimit:10;" width="45.361" height="40.996"/>
					
						<path id="XMLID_97_" style="fill:#263238;stroke:#263238;stroke-linecap:round;stroke-linejoin:round;stroke-miterlimit:10;" d="
						M411.757,201.995c-1.227,0.062-2.719,0.245-4.527,0.638c-6.891,1.498-8.689,11.385-16.478,11.385
						c-6.897,0-7.49-9.288-17.377-10.486c-2.986-0.362-5.257,0.235-6.979,1.242v21.085h45.361V201.995z"/>
					
						<path id="XMLID_93_" style="fill:#FFFFFF;stroke:#263238;stroke-linecap:round;stroke-linejoin:round;stroke-miterlimit:10;" d="
						M381.464,194.244c0,2.813-2.28,5.093-5.093,5.093s-5.093-2.28-5.093-5.093c0-2.813,2.28-5.093,5.093-5.093
						S381.464,191.431,381.464,194.244z"/>
				</g>
			</g>
		</g>
	</g>
</g>
<g id="Character">
	<g>
		<ellipse style="fill:#C6FF00;" cx="142.77" cy="421.02" rx="70.481" ry="7.996"/>
		<ellipse style="opacity:0.5;fill:#FFFFFF;" cx="142.77" cy="421.02" rx="70.481" ry="7.996"/>
	</g>
	<g>
		<path style="fill:#FFFFFF;stroke:#263238;stroke-miterlimit:10;" d="M183.576,191.774c0,0-5.551,2.045-6.428,7.597
			c-0.876,5.551-10.81,3.506-10.81,3.506s0-16.946,2.63-19.868C171.597,180.087,183.576,191.774,183.576,191.774z"/>
		<g>
			<path style="fill:#FFFFFF;stroke:#263238;stroke-miterlimit:10;" d="M186.497,169.276c0,0,1.753,7.304,2.63,7.889
				c0.877,0.584,3.506,1.753,3.214,2.63c-0.292,0.877-2.337,3.506-2.337,3.506s0.493,7.555-0.383,8.431
				c-0.877,0.876-2.538,1.503-6.045,1.503c-3.506,0-7.597-1.169-8.765-2.922c-1.169-1.753-2.337-3.506-2.337-3.506
				s-2.045,0-2.045-2.922c0-2.922-1.461-6.72,2.045-10.811C175.979,168.984,183.284,166.939,186.497,169.276z"/>
			<path style="fill:#263238;" d="M186.985,178.376c0.121,0.789-0.014,1.465-0.301,1.509c-0.287,0.044-0.618-0.56-0.739-1.35
				c-0.121-0.789,0.014-1.465,0.301-1.509C186.534,176.983,186.864,177.587,186.985,178.376z"/>
			<path style="fill:none;stroke:#263238;stroke-linecap:round;stroke-linejoin:round;stroke-miterlimit:10;" d="M184.019,175.963
				c0,0,1.061-2.76,2.972-1.698"/>
		</g>
		<path style="fill:#C6FF00;stroke:#263238;stroke-miterlimit:10;" d="M165.753,196.449c0,0,2.63-1.461,7.596,0.584
			c4.967,2.045,10.518,4.967,11.395,5.259c0.877,0.292,2.337,1.169,0.292,1.753c-2.045,0.584-6.428,1.169-7.596,1.169
			S169.843,202,167.506,202c-2.337,0-3.506,0-3.506,0S163.416,197.325,165.753,196.449z"/>
		<g>
			<g>
				<path style="fill:#FFFFFF;stroke:#263238;stroke-miterlimit:10;" d="M181.238,206.967c0,0-5.551-4.383-13.44-6.136
					c-7.889-1.753-15.193-0.292-20.16,1.169s-9.35,2.63-11.395,4.967c-2.045,2.337-23.666,31.847-28.925,39.736
					c-5.259,7.889-9.159,26.98-9.159,26.98s1.169,1.753,2.922,1.753c1.753,0,1.855-3.314,1.855-3.314s2.337-1.169,4.675-3.506
					c2.337-2.337,5.259-15.777,9.057-18.991c3.798-3.214,26.004-23.374,26.004-23.374s4.383,11.687,4.383,16.362
					c0,4.675-1.753,7.889-6.428,16.362c-4.675,8.473-9.058,12.856-11.395,21.913c-2.337,9.057-4.09,21.037-4.09,21.037
					s-9.35,32.139-11.103,37.106c-1.753,4.967-14.609,16.07-16.946,24.543c-2.337,8.473-8.473,39.444-11.395,42.658
					c-2.922,3.214-8.765,4.383-12.856,8.765c-4.09,4.383-3.214,5.551,1.753,5.259c4.967-0.292,10.226-2.63,13.44-3.214
					c3.214-0.584,4.967-0.292,5.843-3.506c0.877-3.214-2.045-4.383,0.292-9.934c2.338-5.551,17.823-37.983,24.543-47.332
					c6.72-9.35,13.44-20.452,16.07-26.588c2.63-6.136,11.395-27.757,12.271-30.386c0.876-2.63,0.876-3.506,2.045-0.584
					c1.169,2.922,8.181,33.308,7.889,40.612c-0.292,7.304-6.428,19.868-3.798,28.341c2.63,8.473,10.226,30.678,11.395,36.814
					c1.169,6.136-1.169,10.226,0,11.979c1.169,1.753,12.271,3.506,15.193,3.798c2.922,0.292,10.518,1.169,11.103-0.876
					c0.584-2.045-5.259-2.337-9.057-6.428c-3.143-3.385-8.181-8.473-9.934-16.07c-1.753-7.597-4.09-33.6-2.922-40.905
					s2.63-28.049,2.922-31.555c0.292-3.506,3.214-17.823,1.169-31.847c-2.045-14.024-4.09-34.769-4.09-34.769
					s1.753-11.103,2.337-11.979c0.584-0.876,7.304-9.934,7.597-13.44c0.292-3.506-0.584-8.765-0.584-8.765
					s20.745-6.428,32.139-10.518c11.395-4.09,36.868-23.194,39.497-25.532c1.173-1.042,0.359-3.341,1.509-4.604
					c1.428-1.568,2.528-2.88,2.528-2.88l-1.753-2.922c0,0-13.44,6.72-25.711,13.732c-12.271,7.012-20.452,10.518-24.543,12.271
					C197.892,204.922,182.115,206.967,181.238,206.967z"/>
				<path style="fill:#C6FF00;stroke:#263238;stroke-miterlimit:10;" d="M88.682,407.452c-2.592,0-6.481,2.074-6.481,2.074
					l0.689-1.103c-3.051,1.85-7.027,3.335-10.049,6.573c-4.09,4.383-3.214,5.551,1.753,5.259c4.967-0.292,10.226-2.629,13.44-3.214
					c3.214-0.584,4.967-0.292,5.843-3.506c0.566-2.077-0.447-3.305-0.609-5.408C92.541,407.918,90.698,407.452,88.682,407.452z"/>
				<g>
					<path style="fill:#FFFFFF;stroke:#263238;stroke-miterlimit:10;" d="M93.837,413.668c-1.906-0.641-4.46-1.071-7.747-0.772
						c-5.384,0.49-11.073,2.313-14.552,3.598c-2.503,3.154-1.289,4.017,3.057,3.761c4.967-0.292,10.226-2.629,13.44-3.214
						C91.201,416.466,92.947,416.733,93.837,413.668z"/>
					<path style="fill:#FFFFFF;stroke:#263238;stroke-miterlimit:10;" d="M92.963,415.451c-0.98-0.328-3.275-0.747-8.17-0.222
						c-5.276,0.565-11.222,2.363-14.483,4.099c0.29,0.842,1.752,1.076,4.284,0.927c4.967-0.292,10.226-2.629,13.44-3.214
						C90.381,416.614,91.947,416.649,92.963,415.451z"/>
				</g>
				<path style="opacity:0.5;fill:#C6FF00;" d="M107.505,376.029L102,376.75c0,0-7.25,18-9.75,24.5s-3.571,9.791-6.16,11.646
					c-2.065,1.479-10.587,2.257-15.224,4.539c-1.516,2.379-0.144,3.048,3.729,2.82c4.967-0.292,10.226-2.63,13.44-3.214
					c3.214-0.584,4.967-0.292,5.843-3.506c0.877-3.214-2.045-4.383,0.292-9.934C95.547,400.332,101.484,387.739,107.505,376.029z"/>
				<g>
					<path style="fill:#C6FF00;stroke:#263238;stroke-miterlimit:10;" d="M181.823,412.951c-1.279-1.378-2.871-3.043-4.429-5.039
						c-1.608,1.262-2.13,3.169-2.13,3.169s-6.74-1.037-9.073-2.333c-0.468-0.26-0.893-0.413-1.276-0.495
						c-0.033,4.056-1.24,6.84-0.331,8.204c1.169,1.753,12.271,3.506,15.193,3.798c2.922,0.292,10.518,1.169,11.103-0.876
						C191.464,417.333,185.621,417.041,181.823,412.951z"/>
					<path style="fill:#FFFFFF;stroke:#263238;stroke-miterlimit:10;" d="M190.88,419.379c0.079-0.276,0.032-0.52-0.103-0.746
						c-3.182,0.738-7.899-0.015-14.476-1.331c-5.026-1.005-9.499-1.9-12.042-2.408c-0.013,0.634,0.061,1.166,0.326,1.563
						c1.169,1.753,12.271,3.506,15.193,3.798C182.699,420.547,190.296,421.424,190.88,419.379z"/>
				</g>
				<path style="opacity:0.5;fill:#C6FF00;" d="M181.823,412.951c-3.143-3.385-8.181-8.473-9.934-16.07
					c-0.793-3.437-1.705-10.644-2.359-18.18l-3.654,2.03c0,0,2.003,17.529,4.007,22.537c2.003,5.008,13.522,12.521,15.025,15.526
					c0.341,0.682,0.336,1.309,0.141,1.876c2.783,0.097,5.492-0.103,5.832-1.291C191.464,417.333,185.621,417.041,181.823,412.951z"
					/>
				<path style="opacity:0.5;fill:#C6FF00;" d="M139.833,210.951c0,0,1.002,7.012,8.514,10.016
					c7.512,3.005,20.033,1.002,26.544-3.506c6.511-4.508,2.549-12.248,2.549-12.248l-3.05-4.28
					C174.39,200.934,158.364,215.458,139.833,210.951z"/>
				<path style="opacity:0.5;fill:#C6FF00;" d="M107.61,268.616c2.337-2.337,5.259-15.777,9.057-18.991
					c3.539-2.994,23.044-20.688,25.697-23.095l-2.531-5.061c0,0-8.514,6.511-16.026,15.025
					c-7.512,8.514-16.527,14.023-16.026,19.031c0.501,5.008-4.845,16.598-4.845,16.598S105.273,270.953,107.61,268.616z"/>
				<path style="opacity:0.5;fill:#C6FF00;" d="M200.934,213.956c0,0,7.512-9.516,6.01-8.013c-1.502,1.503-5.509,7.012-12.521,9.015
					c-7.012,2.003-23.539,7.512-26.043,9.015c-2.504,1.503-11.018,0-8.514,2.504c2.504,2.504,4.507,7.012,5.008,8.514
					c0.501,1.503-1.503,5.008-2.003,8.013c-0.501,3.005-2.925,10.925,0,13.021c1.113,0.798,3.413,1.713,6.163,2.458
					c-0.044-0.433-0.068-0.678-0.068-0.678s1.753-11.103,2.337-11.979c0.584-0.876,7.304-9.934,7.596-13.44
					c0.292-3.506-0.584-8.765-0.584-8.765s20.744-6.428,32.139-10.518c11.395-4.09,36.868-23.194,39.497-25.532
					c1.173-1.043,0.359-3.341,1.509-4.604c0,0-15.47,9.453-26.989,18.468C212.954,210.45,200.934,213.956,200.934,213.956z"/>
			</g>
			
				<line style="fill:none;stroke:#263238;stroke-linecap:round;stroke-linejoin:round;stroke-miterlimit:10;" x1="178.317" y1="223.621" x2="168.383" y2="227.419"/>
			
				<line style="fill:none;stroke:#263238;stroke-linecap:round;stroke-linejoin:round;stroke-miterlimit:10;" x1="175.979" y1="224.79" x2="168.383" y2="232.678"/>
			
				<line style="fill:none;stroke:#263238;stroke-linecap:round;stroke-linejoin:round;stroke-miterlimit:10;" x1="142.671" y1="226.251" x2="138.219" y2="216.534"/>
		</g>
		<g>
			<path style="fill:#263238;stroke:#263238;stroke-miterlimit:10;" d="M190.248,167.577c0,0-3.686,4.323-8.846,7.891
				c-5.159,3.569-7.933,1.795-7.124,8.466c0.809,6.671,6.461,16.876,1.539,24.83c-4.922,7.955-14.186,14.081-30.323,7.208
				c-16.138-6.873-18.213-23.986-11.085-30.736c7.128-6.751,13.254-7.199,16.717-12.622c3.463-5.423,1.177-14.564,10.213-17.72
				c9.036-3.156,16.744-0.264,19.064-0.546c2.32-0.281,1.977-5.537,9.255-3.771C196.936,152.345,197.288,164.958,190.248,167.577z"
				/>
			<path style="fill:none;stroke:#FFFFFF;stroke-width:0.5;stroke-linecap:round;stroke-linejoin:round;stroke-miterlimit:10;" d="
				M189.416,156.477c0,0,6.456-0.248,5.711,4.221c-0.745,4.47-2.235,4.47-9.933,6.208c-7.698,1.738-16.141,1.986-17.879,9.436
				c-1.738,7.45,3.476,19.369,2.98,28.308c-0.497,8.939-5.96,12.168-11.919,12.913"/>
			<path style="fill:none;stroke:#FFFFFF;stroke-width:0.5;stroke-linecap:round;stroke-linejoin:round;stroke-miterlimit:10;" d="
				M174.765,179.322c0,0-5.463,3.477-5.215,15.396"/>
			<path style="fill:none;stroke:#FFFFFF;stroke-width:0.5;stroke-linecap:round;stroke-linejoin:round;stroke-miterlimit:10;" d="
				M184.45,163.181c0,0-9.684-4.221-16.141,1.242c-6.456,5.463-4.47,12.416-6.953,19.865c-2.483,7.449-8.939,19.12-18.624,21.852
				c-9.684,2.731-12.664-10.678-8.443-12.664c4.221-1.987,8.691,0.993,6.953,4.966"/>
		</g>
		<g>
			<path style="fill:#FFFFFF;stroke:#263238;stroke-linecap:round;stroke-linejoin:round;stroke-miterlimit:10;" d="
				M100.282,283.822c0,0,0.599,4.592,0.2,6.19c-0.399,1.597-0.399,1.597-0.399,1.597s-1.198,0.998-1.398-7.188
				C98.685,284.421,99.483,282.624,100.282,283.822z"/>
			<path style="fill:#FFFFFF;stroke:#263238;stroke-linecap:round;stroke-linejoin:round;stroke-miterlimit:10;" d="M99.084,286.218
				c0,0,0.599,4.592,0.2,6.19c-0.399,1.597-0.399,1.597-0.399,1.597s-1.198,0.998-1.398-7.188
				C97.487,286.817,98.285,285.02,99.084,286.218z"/>
			<path style="fill:#FFFFFF;stroke:#263238;stroke-linecap:round;stroke-linejoin:round;stroke-miterlimit:10;" d="M98.086,287.815
				c0,0,0.599,4.592,0.2,6.19c-0.399,1.597-0.399,1.597-0.399,1.597s-1.198,0.998-1.398-7.188
				C96.488,288.414,97.287,286.617,98.086,287.815z"/>
			<path style="fill:#FFFFFF;stroke:#263238;stroke-linecap:round;stroke-linejoin:round;stroke-miterlimit:10;" d="
				M102.079,275.037c0,0,2.196,2.596,3.195,4.992c0.998,2.396,2.596,4.393,3.794,4.992s1.797,1.398-0.2,1.398
				s-2.396-1.797-3.594-2.196c-1.198-0.399-3.794-0.399-3.794-0.399s-2.196,1.997-2.795,3.594c-0.599,1.597-1.398,1.997-1.398,4.393
				c0,2.396-0.599,5.99-1.198,4.193c-0.599-1.797-1.198-5.591-0.799-7.787c0.399-2.196,1.997-11.78,2.196-12.579
				c0.2-0.799,0.672-1.953,0.672-1.953S99.883,275.636,102.079,275.037z"/>
			<path style="fill:none;stroke:#263238;stroke-linecap:round;stroke-linejoin:round;stroke-miterlimit:10;" d="M101.48,283.822
				c0,0,0.998-1.398,0.399-3.794"/>
		</g>
		<g>
			<path style="fill:#263238;stroke:#263238;stroke-miterlimit:10;" d="M143.38,253.919c-0.777,1.467-1.686,3.119-2.754,5.055
				c-4.675,8.473-9.057,12.856-11.395,21.913c-2.337,9.057-4.09,21.037-4.09,21.037s-9.35,32.139-11.103,37.106
				c-1.753,4.967-14.609,16.07-16.946,24.543c-0.784,2.84-1.995,8.212-3.368,14.216c2.09-0.675,7.044-1.573,11.377,2.969
				c4.924-9.787,10.319-19.908,13.612-24.489c6.72-9.35,13.44-20.452,16.07-26.588c2.63-6.136,11.395-27.757,12.271-30.386
				c0.876-2.63,0.876-3.506,2.045-0.584c1.169,2.922,8.181,33.308,7.889,40.612c-0.292,7.304-6.428,19.868-3.798,28.341
				c1.4,4.51,4.206,12.91,6.702,20.707c3.409-0.068,7.107-0.438,10.474-1.408c-1.266-10.795-2.24-25.731-1.399-30.987
				c1.169-7.304,2.63-28.049,2.922-31.555c0.292-3.506,3.214-17.823,1.169-31.847c-2.045-14.024-4.09-34.769-4.09-34.769
				S156.554,252.556,143.38,253.919z"/>
			
				<line style="fill:none;stroke:#FFFFFF;stroke-width:0.5;stroke-linecap:round;stroke-linejoin:round;stroke-miterlimit:10;" x1="147.771" y1="298.055" x2="140.838" y2="292.786"/>
			<path style="fill:none;stroke:#FFFFFF;stroke-width:0.5;stroke-linecap:round;stroke-linejoin:round;stroke-miterlimit:10;" d="
				M165.796,258.121c0,0,3.328,17.194,4.714,31.337s-1.941,41.597-1.387,48.53c0.555,6.933-3.051,16.916-3.328,26.068
				c-0.277,9.151,1.109,22.462,1.109,22.462"/>
			<path style="fill:none;stroke:#FFFFFF;stroke-width:0.5;stroke-linecap:round;stroke-linejoin:round;stroke-miterlimit:10;" d="
				M95.636,377.367c0,0,4.437-17.194,9.151-24.404c4.714-7.21,8.32-11.37,8.32-11.37"/>
		</g>
		<g>
			<path style="fill:none;stroke:#263238;stroke-linecap:round;stroke-linejoin:round;stroke-miterlimit:10;" d="M280.181,176.81
				c0.28-0.144,0.139-0.702-0.046-1.185c-0.332-0.341-0.761-0.594-0.761-0.594l-10.304-2.435c0,0-0.044-0.161,2.293-0.453
				c2.337-0.292,5.396,0.656,6.549,0.843c2.787,0.454,2.045-1.169,2.045-1.169s-7.012-2.337-8.473-2.337
				c-1.461,0-4.79,0.458-4.79,0.458s2.745-2.796,2.16-4.257c-0.584-1.461-4.09,2.63-7.012,4.383
				c-2.922,1.753-9.607,7.102-9.607,7.102l1.718,3.124c0,0,1.918,0,2.833,0c2.85-0.049,3.412-0.837,4.85-1.145
				c0.233-0.05,0.459-0.105,0.688-0.158c0.053,0.018,0.09,0.028,0.09,0.028l5.316-0.519c0,0,2.075,0.778,3.242,1.297
				c1.167,0.519,3.112,0.778,4.539,0.778s-4.798-2.593-4.798-2.593s3.631,1.037,5.187,1.297c1.556,0.259,2.723-0.13,3.631-0.648
				c0.908-0.519-1.945-1.556-3.631-1.686c-0.986-0.076-2.411-0.461-3.428-0.769c0.105-0.003-1.092-0.528-0.98-0.528
				C273.179,175.643,279.667,177.075,280.181,176.81z"/>
			<path style="fill:none;stroke:#263238;stroke-linecap:round;stroke-linejoin:round;stroke-miterlimit:10;" d="M271.494,175.643
				c0,0-2.339-0.876-2.974-0.876"/>
			<path style="fill:none;stroke:#263238;stroke-linecap:round;stroke-linejoin:round;stroke-miterlimit:10;" d="M270.716,177.977
				c0,0-2.069-1.305-2.577-1.305"/>
		</g>
		<g>
			<path style="opacity:0.5;fill:#C6FF00;" d="M144.224,230.694l0.117-0.211l-0.575-1.149
				C143.912,229.759,144.065,230.214,144.224,230.694z"/>
		</g>
	</g>
</g>
</svg>
